<svg viewBox="0 0 25 25" fill="currentColor" xmlns="http://www.w3.org/2000/svg">
<g clip-path="url(#clip0_169_386)">
<path d="M13.4438 21.6726C13.7451 21.1509 14.4125 20.9719 14.9342 21.2731C15.4559 21.5744 15.6348 22.2418 15.3337 22.7635C15.0465 23.261 14.6327 23.6738 14.1352 23.961C13.6377 24.2482 13.0733 24.3999 12.4989 24.3999C11.9245 24.3999 11.3599 24.2482 10.8625 23.961C10.3652 23.6738 9.95222 23.2609 9.66505 22.7635L11.5539 21.6726C11.6496 21.8384 11.7876 21.9764 11.9534 22.0721C12.1192 22.1678 12.3075 22.218 12.4989 22.2181C12.6902 22.2181 12.8786 22.1678 13.0443 22.0721C13.2101 21.9764 13.3481 21.8384 13.4438 21.6726ZM10.0646 21.2731C10.5862 20.9722 11.2527 21.1511 11.5539 21.6726L9.66505 22.7635C9.36378 22.2418 9.54279 21.5744 10.0646 21.2731ZM17.9534 8.03627C17.9534 6.58982 17.3791 5.20262 16.3565 4.17973C15.3335 3.15681 13.9455 2.58172 12.4989 2.58172C11.0523 2.58179 9.66519 3.15687 8.64232 4.17973C7.61948 5.20264 7.04431 6.58969 7.04431 8.03627L7.04005 8.50928C6.99335 10.8273 6.60097 12.4843 5.98962 13.7785C5.34548 15.142 4.4907 16.0223 3.77265 16.7635H21.2261C20.5066 16.0219 19.653 15.1411 19.0092 13.7785C18.3568 12.3977 17.9534 10.6044 17.9534 8.03627ZM20.1352 8.03627C20.1352 10.3759 20.5017 11.8314 20.9811 12.8463C21.3416 13.6093 21.7858 14.1697 22.2915 14.7181L22.8167 15.2699L22.8401 15.2955C23.1247 15.6082 23.3125 15.9967 23.3802 16.4141C23.4479 16.8312 23.3934 17.2591 23.2226 17.6456C23.0516 18.0322 22.7714 18.361 22.4172 18.5917C22.107 18.7935 21.7512 18.9135 21.3838 18.94L21.2261 18.9454H3.77158C3.34873 18.945 2.93467 18.8217 2.58053 18.5906C2.22638 18.3595 1.94679 18.0305 1.7762 17.6435C1.60566 17.2566 1.55132 16.8282 1.6196 16.4109C1.68791 15.9938 1.87596 15.6056 2.16079 15.2934L2.18316 15.2689L2.70837 14.7181C3.21328 14.1699 3.6562 13.6092 4.01661 12.8463C4.46606 11.8948 4.81621 10.5561 4.85823 8.46453L4.86249 8.03627C4.86249 6.01098 5.66761 4.06815 7.09971 2.63605C8.5317 1.20427 10.4739 0.399973 12.4989 0.399902C14.5241 0.399902 16.467 1.20404 17.8991 2.63605C19.3312 4.06815 20.1352 6.01098 20.1352 8.03627Z" fill="currentColor"/>
</g>
<defs>
<clipPath id="clip0_169_386">
<rect width="23.9994" height="24" fill="white" transform="translate(0.5 0.399902)"/>
</clipPath>
</defs>
</svg>
