<svg viewBox="0 0 24 25" fill="currentColor" xmlns="http://www.w3.org/2000/svg">
<g clip-path="url(#clip0_214_16)">
<path d="M19 3.93336C19 3.6151 18.877 3.30997 18.6582 3.08492C18.4394 2.85988 18.1427 2.73336 17.8333 2.73336H6.16663C5.85721 2.73336 5.56055 2.85988 5.34176 3.08492C5.12296 3.30997 4.99996 3.6151 4.99996 3.93336V21.0649L11.4212 17.2915L11.559 17.2224C11.8885 17.084 12.2649 17.107 12.5787 17.2915L19 21.0649V3.93336ZM14.6751 6.68491C15.1307 6.21628 15.8692 6.21628 16.3248 6.68491C16.7804 7.15354 16.7804 7.91315 16.3248 8.38178L11.6582 13.1818C11.2026 13.6504 10.464 13.6504 10.0084 13.1818L7.67509 10.7818L7.59534 10.6904C7.2216 10.219 7.24795 9.52424 7.67509 9.0849C8.10223 8.64556 8.77773 8.61845 9.23596 9.00287L9.32483 9.0849L10.8333 10.6365L14.6751 6.68491ZM21.3333 23.1333C21.3333 23.561 21.1119 23.9568 20.7522 24.1716C20.3926 24.3862 19.9489 24.3873 19.5879 24.1751L12 19.7149L4.41207 24.1751C4.05103 24.3873 3.60736 24.3862 3.24768 24.1716C2.88798 23.9568 2.66663 23.561 2.66663 23.1333V3.93336C2.66663 2.97858 3.03564 2.06319 3.69202 1.38806C4.34839 0.712929 5.23837 0.333374 6.16663 0.333374H17.8333C18.7616 0.333374 19.6515 0.712929 20.3079 1.38806C20.9643 2.06318 21.3333 2.97858 21.3333 3.93336V23.1333Z" fill="currentColor"/>
</g>
<defs>
<clipPath id="clip0_214_16">
<rect width="24" height="24" fill="white" transform="translate(0 0.333374)"/>
</clipPath>
</defs>
</svg>
