<svg viewBox="0 0 24 25" fill="currentColor" xmlns="http://www.w3.org/2000/svg">
<g clip-path="url(#clip0_214_6)">
<path d="M19 4.26673C19 3.94847 18.877 3.64334 18.6582 3.4183C18.4394 3.19326 18.1427 3.06674 17.8333 3.06674H6.16663C5.85721 3.06674 5.56055 3.19326 5.34176 3.4183C5.12296 3.64334 4.99996 3.94847 4.99996 4.26673V21.3983L11.4212 17.6249L11.559 17.5557C11.8885 17.4173 12.2649 17.4404 12.5787 17.6249L19 21.3983V4.26673ZM21.3333 23.4666C21.3333 23.8944 21.1119 24.2902 20.7522 24.5049C20.3926 24.7195 19.9489 24.7206 19.5879 24.5084L12 20.0483L4.41207 24.5084C4.05103 24.7206 3.60736 24.7195 3.24768 24.5049C2.88798 24.2902 2.66663 23.8944 2.66663 23.4666V4.26673C2.66663 3.31196 3.03564 2.39656 3.69202 1.72143C4.34839 1.0463 5.23837 0.666748 6.16663 0.666748H17.8333C18.7616 0.666748 19.6515 1.0463 20.3079 1.72143C20.9643 2.39656 21.3333 3.31196 21.3333 4.26673V23.4666Z" fill="currentColor"/>
</g>
<defs>
<clipPath id="clip0_214_6">
<rect width="24" height="24" fill="white" transform="translate(0 0.666748)"/>
</clipPath>
</defs>
</svg>
