<svg viewBox="0 0 24 25" fill="currentColor" xmlns="http://www.w3.org/2000/svg">
<path d="M4.79995 21.9334V5.63011L2.04836 8.38169C1.57973 8.85033 0.820107 8.85033 0.351475 8.38169C-0.117158 7.91306 -0.117158 7.15344 0.351475 6.6848L5.15151 1.88477L5.24292 1.80274C5.71425 1.41831 6.40906 1.44543 6.8484 1.88477L11.6484 6.6848L11.7305 6.77621C12.1149 7.24754 12.0878 7.94235 11.6484 8.38169C11.2091 8.82104 10.5143 8.84815 10.043 8.46372L9.95155 8.38169L7.19996 5.63011V21.9334C7.19996 22.5961 6.6627 23.1334 5.99995 23.1334C5.33721 23.1334 4.79995 22.5961 4.79995 21.9334ZM16.8 2.73321C16.8 2.07047 17.3373 1.5332 18 1.5332C18.6628 1.5332 19.2001 2.07047 19.2001 2.73321V19.0365L21.9516 16.2849C22.4203 15.8162 23.1799 15.8162 23.6485 16.2849C24.1172 16.7535 24.1172 17.5131 23.6485 17.9818L18.8485 22.7818C18.3799 23.2504 17.6202 23.2504 17.1516 22.7818L12.3516 17.9818L12.2695 17.8904C11.8851 17.419 11.9122 16.7242 12.3516 16.2849C12.7909 15.8455 13.4857 15.8184 13.957 16.2028L14.0485 16.2849L16.8 19.0365V2.73321Z" fill="currentColor"/>
</svg>
