<svg viewBox="0 0 24 25" fill="currentColor" xmlns="http://www.w3.org/2000/svg">
<g clip-path="url(#clip0_15_284)">
<path d="M8.625 1.92505C8.625 1.30161 8.12344 0.800049 7.5 0.800049C6.87656 0.800049 6.375 1.30161 6.375 1.92505V3.80005H4.5C2.84531 3.80005 1.5 5.14536 1.5 6.80005V7.55005V9.80005V21.8C1.5 23.4547 2.84531 24.8 4.5 24.8H19.5C21.1547 24.8 22.5 23.4547 22.5 21.8V9.80005V7.55005V6.80005C22.5 5.14536 21.1547 3.80005 19.5 3.80005H17.625V1.92505C17.625 1.30161 17.1234 0.800049 16.5 0.800049C15.8766 0.800049 15.375 1.30161 15.375 1.92505V3.80005H8.625V1.92505ZM3.75 9.80005H20.25V21.8C20.25 22.2125 19.9125 22.55 19.5 22.55H4.5C4.0875 22.55 3.75 22.2125 3.75 21.8V9.80005Z" fill="currentColor"/>
</g>
<defs>
<clipPath id="clip0_15_284">
<rect width="24" height="24" fill="white" transform="translate(0 0.800049)"/>
</clipPath>
</defs>
</svg>
