<svg viewBox="0 0 24 25" fill="currentColor" xmlns="http://www.w3.org/2000/svg">
<g clip-path="url(#clip0_15_304)">
<path d="M9.49219 3.21855L8.60156 4.5498H15.3984L14.5078 3.21855C14.4375 3.11543 14.3203 3.0498 14.1937 3.0498H9.80156C9.675 3.0498 9.55781 3.11074 9.4875 3.21855H9.49219ZM16.3828 1.97168L18.1031 4.5498H18.75H21H21.375C21.9984 4.5498 22.5 5.05137 22.5 5.6748C22.5 6.29824 21.9984 6.7998 21.375 6.7998H21V21.0498C21 23.1217 19.3219 24.7998 17.25 24.7998H6.75C4.67812 24.7998 3 23.1217 3 21.0498V6.7998H2.625C2.00156 6.7998 1.5 6.29824 1.5 5.6748C1.5 5.05137 2.00156 4.5498 2.625 4.5498H3H5.25H5.89688L7.61719 1.96699C8.10469 1.24043 8.925 0.799805 9.80156 0.799805H14.1937C15.0703 0.799805 15.8906 1.24043 16.3781 1.96699L16.3828 1.97168ZM5.25 6.7998V21.0498C5.25 21.8795 5.92031 22.5498 6.75 22.5498H17.25C18.0797 22.5498 18.75 21.8795 18.75 21.0498V6.7998H5.25ZM9 9.7998V19.5498C9 19.9623 8.6625 20.2998 8.25 20.2998C7.8375 20.2998 7.5 19.9623 7.5 19.5498V9.7998C7.5 9.3873 7.8375 9.0498 8.25 9.0498C8.6625 9.0498 9 9.3873 9 9.7998ZM12.75 9.7998V19.5498C12.75 19.9623 12.4125 20.2998 12 20.2998C11.5875 20.2998 11.25 19.9623 11.25 19.5498V9.7998C11.25 9.3873 11.5875 9.0498 12 9.0498C12.4125 9.0498 12.75 9.3873 12.75 9.7998ZM16.5 9.7998V19.5498C16.5 19.9623 16.1625 20.2998 15.75 20.2998C15.3375 20.2998 15 19.9623 15 19.5498V9.7998C15 9.3873 15.3375 9.0498 15.75 9.0498C16.1625 9.0498 16.5 9.3873 16.5 9.7998Z" fill="currentColor"/>
</g>
<defs>
<clipPath id="clip0_15_304">
<rect width="24" height="24" fill="white" transform="translate(0 0.799805)"/>
</clipPath>
</defs>
</svg>
