<svg viewBox="0 0 24 25" fill="currentColor" xmlns="http://www.w3.org/2000/svg">
<g clip-path="url(#clip0_20_2354)">
<path d="M6 2.84985C5.5875 2.84985 5.25 3.18735 5.25 3.59985V21.5999C5.25 22.0124 5.5875 22.3499 6 22.3499H9.75V19.3499C9.75 18.1077 10.7578 17.0999 12 17.0999C13.2422 17.0999 14.25 18.1077 14.25 19.3499V22.3499H18C18.4125 22.3499 18.75 22.0124 18.75 21.5999V3.59985C18.75 3.18735 18.4125 2.84985 18 2.84985H6ZM3 3.59985C3 1.94517 4.34531 0.599854 6 0.599854H18C19.6547 0.599854 21 1.94517 21 3.59985V21.5999C21 23.2545 19.6547 24.5999 18 24.5999H6C4.34531 24.5999 3 23.2545 3 21.5999V3.59985ZM7.125 5.47485C7.125 5.06235 7.4625 4.72485 7.875 4.72485H10.125C10.5375 4.72485 10.875 5.06235 10.875 5.47485V7.72485C10.875 8.13735 10.5375 8.47485 10.125 8.47485H7.875C7.4625 8.47485 7.125 8.13735 7.125 7.72485V5.47485ZM13.875 4.72485H16.125C16.5375 4.72485 16.875 5.06235 16.875 5.47485V7.72485C16.875 8.13735 16.5375 8.47485 16.125 8.47485H13.875C13.4625 8.47485 13.125 8.13735 13.125 7.72485V5.47485C13.125 5.06235 13.4625 4.72485 13.875 4.72485ZM7.125 11.4749C7.125 11.0624 7.4625 10.7249 7.875 10.7249H10.125C10.5375 10.7249 10.875 11.0624 10.875 11.4749V13.7249C10.875 14.1374 10.5375 14.4749 10.125 14.4749H7.875C7.4625 14.4749 7.125 14.1374 7.125 13.7249V11.4749ZM13.875 10.7249H16.125C16.5375 10.7249 16.875 11.0624 16.875 11.4749V13.7249C16.875 14.1374 16.5375 14.4749 16.125 14.4749H13.875C13.4625 14.4749 13.125 14.1374 13.125 13.7249V11.4749C13.125 11.0624 13.4625 10.7249 13.875 10.7249Z" fill="currentColor"/>
</g>
<defs>
<clipPath id="clip0_20_2354">
<rect width="24" height="24" fill="white" transform="translate(0 0.599854)"/>
</clipPath>
</defs>
</svg>
