<svg viewBox="0 0 24 25" fill="currentColor" xmlns="http://www.w3.org/2000/svg">
<g clip-path="url(#clip0_15_296)">
<path d="M20.8316 3.19696L21.4031 3.76853C21.8472 4.21256 21.8472 4.93056 21.4031 5.36987L20.0285 6.74919L17.8509 4.57156L19.2255 3.19696C19.6695 2.75293 20.3875 2.75293 20.8268 3.19696H20.8316ZM9.91035 12.5168L16.2496 6.1729L18.4272 8.35053L12.0833 14.6898C11.9463 14.8267 11.7762 14.9259 11.592 14.9779L8.82862 15.7668L9.61748 13.0034C9.66944 12.8192 9.76864 12.6491 9.90562 12.5121L9.91035 12.5168ZM17.6242 1.59562L8.30429 10.9108C7.89332 11.3217 7.59573 11.8272 7.43985 12.3799L6.08886 17.1036C5.9755 17.5004 6.08414 17.9255 6.37701 18.2184C6.66988 18.5112 7.09502 18.6199 7.49181 18.5065L12.2155 17.1555C12.7729 16.9949 13.2784 16.6973 13.6846 16.2911L23.0045 6.97593C24.3318 5.64856 24.3318 3.49455 23.0045 2.16719L22.4329 1.59562C21.1055 0.268257 18.9515 0.268257 17.6242 1.59562ZM4.15687 3.43787C1.86114 3.43787 0 5.29901 0 7.59473V20.4432C0 22.739 1.86114 24.6001 4.15687 24.6001H17.0054C19.3011 24.6001 21.1622 22.739 21.1622 20.4432V15.1527C21.1622 14.5244 20.6568 14.019 20.0285 14.019C19.4003 14.019 18.8948 14.5244 18.8948 15.1527V20.4432C18.8948 21.4872 18.0493 22.3327 17.0054 22.3327H4.15687C3.11293 22.3327 2.26738 21.4872 2.26738 20.4432V7.59473C2.26738 6.55079 3.11293 5.70525 4.15687 5.70525H9.44742C10.0757 5.70525 10.5811 5.19981 10.5811 4.57156C10.5811 3.9433 10.0757 3.43787 9.44742 3.43787H4.15687Z" fill="currentColor"/>
</g>
<defs>
<clipPath id="clip0_15_296">
<rect width="24" height="24" fill="white" transform="translate(0 0.600098)"/>
</clipPath>
</defs>
</svg>
