<svg viewBox="0 0 24 24" fill="currentColor" xmlns="http://www.w3.org/2000/svg">
<path d="M12.0094 19.4164L12.1337 19.4227C12.7457 19.4849 13.223 20.0016 13.223 20.63C13.2228 21.2582 12.7456 21.7752 12.1337 21.8373L12.0094 21.8436H11.9989C11.3288 21.8436 10.7855 21.3001 10.7853 20.63C10.7853 19.9598 11.3287 19.4165 11.9989 19.4164H12.0094ZM21.5728 13.6181C21.5728 12.6526 21.1894 11.7262 20.5067 11.0435C19.8239 10.3607 18.8976 9.97735 17.932 9.97735H16.001C15.4981 9.97731 15.051 9.66736 14.8706 9.20516L14.838 9.11035C14.5244 8.05883 13.9433 7.10659 13.1514 6.3471C12.3594 5.58762 11.3835 5.04666 10.3197 4.77743C9.25587 4.50823 8.14031 4.51984 7.08236 4.81114C6.02436 5.10249 5.06041 5.66393 4.28435 6.43981C3.50838 7.21559 2.94626 8.17898 2.65464 9.23676C2.36304 10.2947 2.35195 11.4112 2.62092 12.4751C2.88995 13.5388 3.43034 14.5147 4.18954 15.3068C4.94884 16.099 5.90133 16.6807 6.95278 16.9945C7.59466 17.1864 7.95973 17.8621 7.76817 18.5041C7.57654 19.1462 6.90064 19.5119 6.25855 19.3206C4.80427 18.8865 3.48672 18.0817 2.43657 16.9861C1.38655 15.8905 0.639427 14.5405 0.267477 13.0693C-0.104456 11.598 -0.0883642 10.0551 0.314883 8.59204C0.718165 7.12903 1.49504 5.79562 2.56825 4.72265C3.64141 3.64986 4.97468 2.87429 6.43764 2.47139C7.90078 2.06848 9.44364 2.05171 10.9149 2.42399C12.3861 2.79629 13.7352 3.54484 14.8306 4.59518C15.7039 5.43257 16.3915 6.43942 16.8543 7.55016H17.932C19.5414 7.55016 21.0848 8.1894 22.2228 9.32736C23.3607 10.4653 24 12.0089 24 13.6181C23.9999 15.2273 23.3607 16.771 22.2228 17.9089C21.0849 19.0467 19.5412 19.6861 17.932 19.6861H17.3926C16.7226 19.6861 16.1793 19.1426 16.1791 18.4725C16.1791 17.8023 16.7224 17.2589 17.3926 17.2589H17.932C18.8976 17.2589 19.8239 16.8745 20.5067 16.1918C21.1892 15.5091 21.5727 14.5834 21.5728 13.6181ZM10.7853 16.315V12C10.7853 11.3298 11.3287 10.7864 11.9989 10.7864C12.6691 10.7864 13.2125 11.3298 13.2125 12V16.315C13.2123 16.9851 12.669 17.5286 11.9989 17.5286C11.3288 17.5286 10.7855 16.9851 10.7853 16.315Z" fill="currentColor"/>
</svg>
