<svg viewBox="0 0 25 25" fill="currentColor" xmlns="http://www.w3.org/2000/svg">
<path d="M12.3306 0.800049H12.7025L12.8154 0.819971L12.9017 0.846535L12.9482 0.859816L13.0279 0.893021L13.0811 0.919584L13.1143 0.939506V0.952788L13.1475 0.959429L13.1807 0.972711L13.2205 0.992633L13.2604 1.0192L13.3201 1.0524L13.3998 1.09889L13.4197 1.10553L13.4463 1.13209L13.526 1.17194V1.19186H13.5592L13.6057 1.21842L13.6721 1.25163V1.26491L13.7053 1.27819L13.7451 1.29811L13.7783 1.31139V1.32468L13.8049 1.33132L13.8447 1.35788L13.878 1.37116L13.9178 1.39772L13.9377 1.40437L13.9444 1.41765L13.9842 1.42429V1.43757H14.0108L14.0241 1.46413L14.0838 1.49734L14.117 1.51062L14.1436 1.53054L14.1967 1.54382V1.5571H14.2233L14.2299 1.57039L14.2498 1.57703L14.2698 1.59695L14.3362 1.63679L14.3893 1.65672L14.4225 1.68992L14.4756 1.71648L14.5022 1.72313V1.73641L14.542 1.74305V1.75633L14.5686 1.76297L14.5752 1.78289H14.5952L14.6018 1.79618L14.635 1.80946L14.6815 1.84266L14.7346 1.86922L14.8143 1.91571L14.8342 1.92235L14.8608 1.94891L14.9006 1.96884L14.9471 1.98212L14.987 2.00204L14.9936 2.02196H15.0202V2.03525H15.0467L15.0667 2.05517L15.0866 2.06845V2.08173L15.1198 2.09501L15.246 2.16142L15.2991 2.18134V2.20127L15.3589 2.21455L15.3655 2.22783L15.3987 2.23447V2.26103L15.4319 2.27432L15.5182 2.32744L15.5979 2.36065L15.6378 2.37393L15.6444 2.38721L15.671 2.40049V2.41377L15.7108 2.42705L15.7374 2.44698L15.7772 2.45362V2.4669L15.8038 2.47354L15.837 2.50675L15.9101 2.53995L15.9167 2.55323L15.9499 2.56651L15.9765 2.59308L16.0097 2.60636L16.0561 2.63292L16.1757 2.69933L16.1823 2.72589L16.2288 2.73253L16.2886 2.77238V2.78566L16.3351 2.7923L16.3948 2.82551L16.4546 2.86535L16.4944 2.88527L16.5343 2.91184L16.5675 2.92512L16.614 2.95832L16.6671 2.98489L16.7468 3.03137L16.7667 3.03801L16.7933 3.06458L16.8464 3.09114L16.9128 3.13762L16.9527 3.15091L17.0191 3.18411V3.19739L17.0523 3.21067L17.1785 3.27708L17.2316 3.31693L17.2847 3.34349L17.3312 3.37005L17.391 3.40326L17.4507 3.4431L17.4906 3.45639V3.46967L17.5238 3.48295L17.5902 3.51615L17.5968 3.54272H17.63V3.56264L17.6632 3.56928V3.58256L17.7097 3.5892L17.7695 3.62241L17.8027 3.63569L17.8293 3.66225L17.9089 3.7021V3.72202H17.9421L17.982 3.74194L18.0152 3.74858L18.0218 3.77515L18.0484 3.78179L18.1082 3.81499L18.2078 3.8814L18.3207 3.93453L18.3406 3.95445L18.3871 3.98101L18.4336 4.00093V4.01422L18.4933 4.03414L18.5398 4.06734L18.5996 4.10055L18.6461 4.12711L18.666 4.14039L18.7058 4.14703L18.7258 4.18024L18.7656 4.20016L18.8187 4.2068L18.8254 4.23336L18.8586 4.24665L18.9516 4.30641L19.018 4.34626V4.35954H19.0445V4.37946L19.0977 4.3861L19.1176 4.39938V4.41931L19.1574 4.42595L19.2172 4.45251L19.2504 4.48572V4.499L19.2969 4.50564L19.3566 4.53884L19.4031 4.56541L19.5027 4.62517L19.5758 4.65838V4.67166L19.6024 4.6783L19.6754 4.72479L19.702 4.73807V4.75799H19.7352L19.7817 4.78455L19.8149 4.79784V4.81112L19.8414 4.81776L19.8813 4.84432L19.9145 4.8576L19.961 4.89081L20.0407 4.93065L20.0473 4.95722L20.0938 4.96386L20.1469 4.99042L20.2 5.03026L20.22 5.03691V5.05683L20.2532 5.06347L20.3329 5.10331L20.3727 5.12988L20.4524 5.16972L20.4989 5.19629L20.5586 5.22949L20.6317 5.27598L20.6583 5.2959L20.718 5.30918V5.32246L20.7446 5.3291L20.7512 5.34903L20.7778 5.35567L20.8376 5.38887V5.40215L20.8774 5.40879L20.884 5.42872L20.9172 5.442L20.9504 5.46192V5.4752H20.977V5.49512L21.0102 5.50176V5.51505L21.0567 5.52169L21.0766 5.53497L21.1231 5.54825L21.163 5.56817L21.1962 5.5881V5.60802L21.2294 5.6213L21.2891 5.6545L21.3356 5.68107L21.3555 5.68771V5.70099L21.3887 5.71427L21.3954 5.73419L21.4552 5.74748L21.4618 5.77404L21.5083 5.78068L21.5548 5.81388L21.6079 5.84045V5.85373L21.6411 5.86037L21.6743 5.88029L21.7075 5.89357L21.7473 5.9135L21.754 5.92678L21.8138 5.95998L21.847 5.97326L21.8735 5.98655V5.99983L21.9134 6.01311L21.9731 6.04631L22.0263 6.07952L22.0462 6.08616L22.0728 6.11272L22.1524 6.15257V6.17249L22.1856 6.17913L22.2454 6.20569L22.3118 6.24554L22.3649 6.2721L22.4114 6.30531L22.4314 6.31195V6.33187L22.4712 6.33851L22.531 6.37836L22.5642 6.39164L22.5907 6.42484L22.6439 6.47133L22.7501 6.57758L22.7767 6.61078L22.7966 6.62407V6.63735H22.8099L22.8232 6.66391L22.8431 6.67719L22.8564 6.72368L22.9095 6.79673L22.9759 6.92955L22.9958 6.98267V7.01588H23.0091L23.0357 7.10885L23.049 7.17526L23.0622 7.25495L23.0755 7.38776V18.2057L23.0622 18.3186L23.0556 18.3252L23.049 18.385L23.0357 18.4049L23.029 18.478L23.0091 18.4846V18.551H22.9892V18.6108L22.956 18.7038L22.9361 18.7502L22.9161 18.7702L22.8896 18.8299H22.8697L22.863 18.8631L22.8497 18.8897H22.8298L22.8232 18.9229L22.8032 18.9295L22.79 18.9627L22.77 18.9694L22.7634 18.996L22.7368 19.0292L22.6837 19.0756L22.604 19.1553L22.5708 19.1753L22.5509 19.1952L22.531 19.2085H22.511L22.5044 19.2284H22.4845V19.2417L22.4513 19.2549V19.2682L22.3915 19.3014H22.3716V19.3147L22.3317 19.328H22.3052V19.3479L22.2587 19.3878L22.2056 19.4077L22.1524 19.4409L22.106 19.4675L22.0528 19.494L22.013 19.5206L21.9665 19.5272V19.5405L21.8735 19.6003L21.8337 19.6202L21.8204 19.6401L21.754 19.6667H21.7274V19.6866L21.6743 19.7132L21.6544 19.7198V19.7331L21.6345 19.7397L21.6212 19.7597L21.568 19.7796L21.4751 19.8261L21.4552 19.8526L21.3887 19.8792V19.8925L21.3223 19.9257L21.2692 19.9456H21.2493V19.9589L21.2094 19.9655V19.9854H21.1696V20.0054L21.1364 20.0253L21.1032 20.0386L21.0965 20.0518L21.07 20.0651H21.0368L21.0301 20.0851L20.9969 20.105L20.977 20.1183H20.9571V20.1315L20.8973 20.1515V20.1647L20.8774 20.1714L20.8442 20.2046L20.7911 20.2245L20.7579 20.2444H20.7313V20.2577L20.6782 20.2909L20.6184 20.3175L20.6051 20.3374L20.5586 20.344H20.4192L20.4125 20.3374L20.3528 20.3308L20.2731 20.2909V20.2776L20.2399 20.2644L20.1735 20.1979L20.1336 20.1183V20.0452H20.1203L20.1137 20.0186L20.1071 10.3097L20.0805 10.3031L20.0739 10.3297L20.0207 10.3562L19.961 10.3961L19.9145 10.4027V10.4226L19.8082 10.4758L19.8016 10.489H19.7817V10.5023L19.7086 10.5355L19.682 10.5554L19.6356 10.5621V10.5754L19.6024 10.5886V10.6019L19.5227 10.6418L19.4629 10.6816H19.4363V10.6949L19.3633 10.7414L19.3035 10.7746L19.277 10.8012L19.2703 10.8144L19.184 10.841L19.1441 10.8609H19.1176V10.8808L19.0844 10.8875V10.9008L19.0246 10.934L18.925 10.9937H18.9051V11.007L18.8785 11.0203H18.8387V11.0402L18.8055 11.0535V11.0668L18.7457 11.0934L18.7058 11.1199L18.6726 11.1332L18.6461 11.1531L18.5996 11.1598V11.1797L18.5265 11.2195H18.5066V21.2074L18.5 21.3003L18.4535 21.4398L18.3605 21.5792L18.3008 21.6456L18.241 21.6921L18.1945 21.732L18.1281 21.7585H18.1015V21.7785L18.075 21.7851L18.0683 21.805L18.0152 21.8382L17.9621 21.8582L17.9089 21.8914L17.8625 21.898L17.8558 21.9179H17.8226V21.9378L17.7695 21.9711L17.6898 22.0109L17.63 22.0507L17.5703 22.0839L17.5304 22.1105L17.4839 22.1171V22.1371L17.3777 22.1902L17.371 22.2035L17.3312 22.2234H17.3179L17.3113 22.2433L17.2316 22.2765L17.1917 22.3031H17.1785L17.1718 22.323L17.112 22.3496L17.039 22.3894L17.0124 22.4093L16.9659 22.4359L16.9128 22.4625L16.8929 22.4691V22.4824L16.8331 22.5156L16.7734 22.5422L16.7335 22.5687L16.687 22.5754V22.5953L16.6538 22.6019V22.6152L16.6339 22.6219L16.6007 22.6551L16.5476 22.675L16.5144 22.6949L16.4812 22.7082L16.4745 22.7215L16.4413 22.7414L16.3948 22.7613L16.355 22.7879L16.2819 22.8277L16.2487 22.8344V22.8476L16.1956 22.8742H16.169L16.1624 22.9074L16.1491 22.9207L16.096 22.934H16.0495V22.9539L15.9897 22.9605H15.8835L15.8237 22.9539L15.8171 22.934H15.764L15.7241 22.9074L15.6909 22.8941L15.6577 22.8476L15.6378 22.8344V22.8144H15.6245L15.5913 22.7547L15.578 22.6949L15.5714 22.6883L15.5647 11.3391H15.5514L15.5382 11.2594L15.5249 11.2129V11.1996H15.5116L15.505 11.1598H15.4917L15.4651 11.1L15.4452 11.0601L15.4186 11.0336L15.3854 10.9805L15.3522 10.9539L15.3323 10.9273L15.3057 10.9141L15.2725 10.8742L15.1928 10.8211L15.1198 10.7812L15.0866 10.7547L15.0401 10.7347L15.0069 10.7082L14.9604 10.6883L14.9206 10.6617L14.8409 10.6219L14.8143 10.6152V10.6019L14.7811 10.5886L14.7014 10.5355L14.6416 10.5023L14.6018 10.4824V10.4691L14.5752 10.4625L14.4823 10.416L14.4358 10.3828L14.3362 10.323L14.2963 10.3031L14.2366 10.2632L14.1901 10.2566L14.1834 10.23L14.1569 10.2234L14.0838 10.1836L14.0639 10.1703V10.1437H14.0307L14.0241 10.1238H13.9908L13.9643 10.1039V10.0839H13.9311L13.9244 10.064L13.8912 10.0574L13.8447 10.0441L13.785 10.0109L13.7451 9.98433L13.6654 9.94449L13.6123 9.91128L13.5924 9.89136L13.5393 9.8648V9.85152L13.5061 9.84487L13.4795 9.83159L13.4662 9.81167L13.4197 9.79839L13.3666 9.77183L13.36 9.7519L13.3268 9.74526L13.2604 9.70542L13.2006 9.67221L13.1607 9.65893V9.64565L13.1275 9.63237L13.0811 9.59916L13.0279 9.5726L12.9881 9.54604L12.9482 9.52611L12.915 9.49955L12.8818 9.48627L12.8353 9.45306L12.8088 9.44642V9.43314L12.749 9.41322L12.7092 9.38666L12.6693 9.36673V9.35345L12.6428 9.34681L12.5498 9.30033L12.5365 9.2804L12.5033 9.26712V9.25384L12.4701 9.2472L12.4037 9.21399L12.397 9.20071L12.3638 9.18743L12.2908 9.14759L12.2642 9.14095V9.12766L12.231 9.11438L12.1978 9.09446L12.1779 9.07454L12.1314 9.05461V9.02805H12.0982L12.0517 8.99485L12.0318 8.98821V8.96828H11.9986L11.992 8.94836L11.9654 8.94172L11.9056 8.9218L11.8525 8.89523L11.8127 8.86867L11.7529 8.83547L11.7396 8.82219L11.6931 8.80226L11.6599 8.7757L11.6134 8.75578V8.73585L11.5736 8.72921L11.547 8.71593L11.5337 8.69601L11.5005 8.68273V8.66945L11.474 8.6628V8.64952L11.4474 8.64288L11.4142 8.62296V8.60968H11.381L11.3744 8.58976H11.3279L11.2548 8.54991L11.2216 8.52335L11.1751 8.50342L11.1286 8.47686L11.029 8.41709L10.9825 8.38389L10.9493 8.37061L10.8896 8.3374V8.31084H10.8364L10.8032 8.28428L10.7568 8.26435L10.7036 8.22451L10.6372 8.20459L10.604 8.16474L10.5708 8.15146V8.13818L10.5376 8.13154L10.4712 8.09169L10.4181 8.06513L10.3716 8.03857V8.02528H10.3384L10.2653 7.9788L10.2454 7.95888L10.1989 7.93895L10.0993 7.87254V7.85262H10.0661L10.0595 7.8327L10.0329 7.82606L9.94657 7.80614L9.93993 7.77957L9.91337 7.77293L9.79384 7.70652L9.74735 7.67996L9.72743 7.66004L9.68094 7.64012L9.62117 7.61355L9.50828 7.53386L9.46179 7.51394L9.42859 7.5073L9.42195 7.48074L9.39538 7.47409L9.36218 7.44089L9.32898 7.42761V7.41433H9.28249L9.21608 7.36784L9.19616 7.3612L9.18952 7.34792L9.13639 7.328L9.0567 7.27487L9.01686 7.25495L8.94381 7.2151L8.91724 7.20846V7.19518L8.8774 7.18854V7.16862L8.83755 7.15533L8.77115 7.10885L8.70474 7.08228L8.63169 7.02916L8.59848 7.01588V7.00259L8.56528 6.99595L8.49887 6.95611L8.4391 6.9229L8.39926 6.90962V6.89634L8.36605 6.88306L8.33285 6.86314L8.31293 6.84321L8.24652 6.81665L8.21996 6.79009L8.16019 6.76352L8.08714 6.72368L8.0805 6.70376L8.04729 6.69712L7.98089 6.65727L7.92112 6.62407L7.91448 6.5975H7.88791V6.58422L7.84807 6.57094V6.55766L7.81486 6.55102L7.74846 6.52445L7.70197 6.49789L7.66877 6.49125V6.47133L7.6422 6.46469L7.60236 6.4514V6.43812L7.56915 6.42484L7.52931 6.39164L7.44962 6.35179L7.39649 6.33187L7.36329 6.29867L7.27032 6.25218L7.25703 6.23226L7.19063 6.20569L7.18398 6.18577L7.15078 6.17913L7.11758 6.15257L7.08437 6.13929L7.01132 6.09944L6.98476 6.0928L6.97812 6.07288L6.93163 6.05295L6.85194 6.00647L6.80546 5.97326L6.76561 5.95998L6.71249 5.92678L6.666 5.90021V5.88693L6.63279 5.88029L6.56639 5.84045L6.50662 5.80724L6.46013 5.77404L6.41365 5.75412L6.33396 5.70763L6.28747 5.69435V5.68107L6.26755 5.67443L6.23434 5.64122V5.6213L6.1945 5.61466V5.60138L6.16794 5.59474L6.13473 5.58145V5.56153H6.10153L6.09489 5.54161L6.05504 5.53497V5.52169H6.0152L5.98863 5.50841L5.98199 5.48184H5.95543V5.46192H5.92222L5.91558 5.44864L5.88902 5.442V5.42872L5.85582 5.42207V5.40215H5.82261L5.81597 5.38223H5.78277L5.73628 5.34903L5.70308 5.33574V5.32246L5.67651 5.31582V5.30254L5.64995 5.2959L5.61675 5.28262V5.26269H5.5769V5.24277L5.53042 5.23613L5.50385 5.21621L5.45737 5.19629L5.43744 5.16308V5.14316L5.41752 5.13652L5.41088 5.09003H5.3976V5.06347H5.38432L5.36439 4.95057L5.35775 4.93065L5.37104 4.79784L5.39096 4.73807L5.41752 4.68494L5.45737 4.63846L5.49057 4.62517L5.49721 4.60525L5.59018 4.55876L5.63667 4.5322L5.68315 4.51228L5.69644 4.49236L5.76284 4.45915L5.77613 4.44587H5.79605V4.43259L5.84918 4.40603L5.95543 4.34626L5.96871 4.32634L6.03512 4.31305V4.29977L6.06832 4.28649V4.26657L6.11481 4.25329L6.17458 4.22672L6.1945 4.2068L6.23434 4.18024H6.24763V4.16696L6.29411 4.14703L6.31403 4.12711L6.35388 4.11383L6.41365 4.08062H6.46013V4.06734L6.49334 4.0607L6.49998 4.04078L6.5199 4.03414L6.53318 4.01422L6.59295 4.00758V3.98765H6.63279V3.96773L6.666 3.96109L6.67264 3.94781H6.69256L6.6992 3.92124L6.73905 3.90132L6.75233 3.8814L6.83202 3.84819L6.8453 3.82827L6.89179 3.80171L6.90507 3.78843L6.97148 3.76186L7.01132 3.7353H7.03125V3.72202H7.04453V3.70874L7.15078 3.65561L7.23047 3.60912L7.29688 3.58256L7.35001 3.54936L7.39649 3.54272L7.40313 3.52279H7.4297V3.50951L7.45626 3.49623L7.4629 3.48295H7.4961V3.46967L7.53595 3.45639L7.56251 3.4431V3.42982L7.59572 3.4099L7.609 3.38998H7.62228V3.37005L7.80822 3.33685L7.82815 3.33021L7.90784 3.32357H7.98089L8.02737 3.33021V3.34349H8.14027L8.20667 3.37005L8.24652 3.38334L8.26644 3.39662L8.32621 3.41654L8.47231 3.50951L8.52543 3.53608L8.53208 3.56264L8.57856 3.56928L8.63833 3.60248L8.66489 3.62241L8.71138 3.62905L8.71802 3.65561L8.74458 3.66225L8.78443 3.67553V3.69546L8.81763 3.70874L8.8774 3.74194L8.95709 3.78179V3.79507L8.98365 3.80171L9.0567 3.84819L9.13639 3.89468L9.15631 3.90796V3.92124L9.19616 3.92789L9.22272 3.94117V3.96109L9.25593 3.96773V3.98101L9.30241 3.98765L9.37546 4.03414L9.43523 4.0607L9.47507 4.08727L9.53484 4.12047L9.57469 4.14039L9.61453 4.16696L9.63446 4.1736L9.6411 4.18688L9.69422 4.20016L9.71415 4.22008L9.78055 4.24665V4.26657L9.81376 4.27985L9.84032 4.29977L9.88681 4.31969V4.33298L9.92001 4.34626L9.99306 4.3861L10.0728 4.43259L10.1524 4.47243L10.179 4.499L10.2587 4.53884V4.55876H10.2919L10.3384 4.58533L10.438 4.6451L10.4579 4.65174L10.4646 4.6783H10.511V4.69158L10.5775 4.70486V4.71815L10.604 4.72479L10.6372 4.75799L10.7103 4.79119L10.7169 4.80448L10.7501 4.81776V4.83104L10.7767 4.83768L10.8165 4.86424L10.8829 4.88417L10.8896 4.89745L10.9228 4.91073L10.9294 4.93065L10.956 4.94393L11.0224 4.98378V4.99706H11.049V5.01698L11.0888 5.02362V5.03691L11.1286 5.04355L11.1552 5.06347L11.1951 5.07675L11.2947 5.14316L11.3279 5.15644L11.3677 5.17636L11.4076 5.20293L11.4872 5.24277L11.6068 5.32246V5.34238H11.6599L11.7462 5.39551L11.7728 5.41543L11.8193 5.43536V5.44864L11.8525 5.46192L11.9255 5.50176L11.9853 5.53497L12.0318 5.54825V5.56153L12.0584 5.56817L12.065 5.5881L12.0916 5.59474L12.1314 5.6213L12.1646 5.63458L12.1912 5.66114L12.2244 5.67443L12.2642 5.69435L12.3306 5.74083L12.3638 5.75412L12.4103 5.78732L12.4302 5.79396V5.81388H12.4767L12.5099 5.84045L12.5431 5.85373L12.5498 5.86701L12.583 5.88693L12.6295 5.9135L12.6826 5.93342V5.9467L12.7092 5.95334L12.749 5.97991L12.7822 5.99319L12.8088 6.00647V6.01975L12.8486 6.03303L12.9084 6.06624L12.9615 6.09944L12.9814 6.10608L12.9881 6.11936L13.0213 6.13264V6.15921H13.0611L13.1275 6.20569L13.2272 6.24554L13.2338 6.26546L13.2936 6.28538L13.3467 6.32523L13.3998 6.35179L13.4463 6.37836L13.5193 6.42484L13.5658 6.4514L13.6123 6.46469L13.619 6.48461L13.6455 6.49125L13.7053 6.53109L13.7518 6.55102V6.5643L13.785 6.57758L13.858 6.61743L13.9178 6.65063L13.9576 6.67055L13.9908 6.67719L13.9975 6.70376L14.0241 6.7104L14.0639 6.72368V6.7436L14.0971 6.75688L14.1834 6.81001L14.2299 6.81665L14.2366 6.82993L14.2698 6.84321L14.2764 6.86314L14.3162 6.87642L14.3428 6.90298L14.4159 6.93619L14.469 6.95611L14.4756 6.96939L14.5088 6.98267L14.542 7.00259V7.01588L14.5752 7.02252L14.6084 7.05572V7.069L14.6616 7.08228L14.7147 7.11549V7.12877L14.7545 7.13541L14.8143 7.16862L14.8608 7.19518L14.9338 7.24166L15.0003 7.28151L15.06 7.30807L15.1198 7.34792L15.1663 7.36784V7.38112L15.1995 7.3944L15.3257 7.46081L15.3589 7.48738L15.4319 7.52058L15.4585 7.54714L15.4718 7.55378V7.56707L15.5382 7.57371L15.5514 7.60027L15.578 7.60691L15.6378 7.64012V7.6534L15.6776 7.66004L15.7175 7.67332V7.69988L15.7507 7.70652L15.8237 7.73973L15.8304 7.75965L15.8569 7.77293L15.9499 7.8327V7.84598L15.9831 7.85262V7.8659L16.0296 7.87254L16.0628 7.89247L16.0894 7.90575V7.92567L16.1358 7.93231L16.1558 7.93895V7.95223L16.1956 7.96552L16.2554 7.99872L16.3683 8.07177V8.08505L16.4148 8.09169L16.5077 8.14482L16.5874 8.19795L16.6339 8.21787L16.6405 8.24443H16.6737L16.6804 8.26435L16.7269 8.271L16.7734 8.29756L16.8265 8.33076L16.8464 8.3374L16.873 8.36397L16.9128 8.38389L16.9593 8.39717L16.9659 8.41709L16.9925 8.42373L17.0257 8.44366L17.0722 8.43702L17.1187 8.41709L17.1519 8.38389L17.205 8.35733L17.2515 8.33076H17.2648V8.31084L17.4042 8.25107L17.4441 8.24443L17.4507 8.23115L17.4773 8.22451L17.4906 8.20459H17.5039L17.5105 8.18466L17.557 8.16474L17.5835 8.1581L17.5902 8.13154L17.6433 8.11162L17.65 8.10497H17.6898L17.6964 8.08505L17.7164 8.07177H17.7496V8.05185L17.7894 8.03192L17.8492 7.99208L17.8691 7.97216L17.9289 7.93895L17.9488 7.92567H17.9953V7.91239H18.0285L18.0351 7.88583L18.1015 7.85262H18.1281L18.1347 7.82606L18.2144 7.78621H18.2277L18.241 7.75965L18.2875 7.72645L18.3406 7.69988L18.3804 7.67332L18.4601 7.63347L18.4668 7.62683H18.5133V7.61355L18.5465 7.60691L18.5531 7.58699L18.573 7.58035L18.5797 7.56707L18.6062 7.56043V7.51394L18.5797 7.5073L18.5 7.47409L18.3871 7.41433L18.3672 7.40105V7.38112L18.3273 7.36784V7.35456L18.2941 7.34792L18.2675 7.33464V7.31471H18.2343L18.2277 7.29479H18.1879L18.1215 7.25495L18.0816 7.23502L18.0218 7.20182L17.9754 7.18854L17.9687 7.16197L17.9421 7.15533L17.8691 7.11549L17.8293 7.09557L17.8027 7.08893V7.07564L17.7695 7.06236L17.7363 7.02916L17.6832 7.00924L17.6632 6.99595V6.98267L17.63 6.97603L17.5503 6.92955L17.4972 6.90962L17.4906 6.89634L17.464 6.8897V6.87642L17.4308 6.86314L17.3976 6.84321L17.3777 6.82329L17.3312 6.80337V6.78345L17.3046 6.77681L17.2913 6.76352L17.2581 6.75024L17.2183 6.73032V6.71704L17.1917 6.7104V6.69712L17.1585 6.69048L17.132 6.67719V6.65727H17.0988L17.0921 6.63735H17.0589L17.0523 6.61743H17.0124L16.9527 6.58422V6.55766H16.9195L16.9128 6.53774L16.8796 6.53109L16.853 6.51781V6.49789H16.8198L16.8132 6.47797H16.78L16.7335 6.45805L16.707 6.4514L16.7003 6.43148L16.6273 6.41156V6.39164H16.6007L16.5941 6.36507L16.5542 6.35179L16.4546 6.29867L16.3882 6.25218L16.3417 6.22562L16.2952 6.20569L16.2886 6.18577L16.2288 6.16585L16.1558 6.126L16.1159 6.09944L16.0495 6.07288V6.0596L16.0163 6.04631L16.003 6.03303L15.9565 6.01311L15.9167 5.98655V5.96662L15.8901 5.95998L15.8503 5.93342V5.92014H15.8171V5.90021H15.7839L15.7772 5.88029L15.744 5.87365L15.6909 5.85373L15.6311 5.83381V5.81388L15.5315 5.77404V5.76076L15.4983 5.74748L15.4651 5.72755L15.4452 5.70763L15.4253 5.69435V5.68107H15.3987V5.66779L15.3655 5.66114L15.3057 5.62794L15.2393 5.60138L15.1397 5.53497L15.06 5.49512L15.0135 5.4752V5.46192L14.9803 5.44864L14.9338 5.41543L14.9139 5.40879L14.9073 5.39551L14.8741 5.38223V5.36895L14.8409 5.36231L14.7612 5.32246L14.7346 5.31582V5.30254L14.7014 5.28926L14.6616 5.26269L14.6284 5.25605L14.6217 5.22949L14.5952 5.22285L14.5221 5.183L14.4889 5.15644L14.4557 5.14316L14.3827 5.10331L14.3162 5.05683L14.2565 5.03026L14.2498 5.01698L14.1768 4.99706V4.98378L14.1502 4.97714L14.1436 4.96386L14.0838 4.93065L14.0506 4.91073L14.0307 4.89081L13.9842 4.87088L13.9112 4.81776L13.858 4.79784L13.8049 4.77127L13.7916 4.75135L13.7252 4.72479L13.6654 4.68494L13.6057 4.65174L13.5924 4.63846L13.5459 4.61853L13.5127 4.59197L13.4596 4.56541V4.55212L13.4264 4.54548L13.3467 4.50564L13.2936 4.46579L13.2471 4.44587V4.43259L13.1873 4.41267L13.1408 4.37946L13.1209 4.37282L13.1143 4.3529L13.0877 4.34626V4.33298L13.0478 4.31969V4.30641L13.0146 4.29977L12.9881 4.28649V4.26657H12.9549L12.9482 4.24665H12.9084L12.8818 4.23336L12.8685 4.21344L12.8221 4.20016L12.7689 4.16696L12.7291 4.14703L12.6959 4.14039L12.6892 4.11383L12.6627 4.10719L12.5896 4.06734L12.5564 4.04078L12.49 4.02086V4.00093L12.4635 3.99429L12.3904 3.95445L12.3572 3.92124L12.3041 3.90132L12.2509 3.86812L12.1845 3.84155V3.82827L12.1513 3.81499L12.0716 3.7685L12.0052 3.72202L11.9654 3.70874L11.9123 3.67553L11.8658 3.66225V3.64233H11.8459V3.62905L11.8127 3.61577L11.733 3.56928L11.6732 3.53608L11.6599 3.52279L11.6134 3.50287L11.5337 3.45639L11.4872 3.42982V3.41654L11.454 3.4099L11.4142 3.38998L11.3876 3.38334V3.37005L11.3544 3.35677L11.3146 3.33021L11.2814 3.32357L11.2747 3.29701L11.2482 3.29036L11.1884 3.25716V3.24388L11.1552 3.2306V3.21732L11.1154 3.20403V3.19075L11.0822 3.18411L11.0556 3.17083V3.15091H11.0224L11.0158 3.13098H10.9825L10.9759 3.11106H10.9361L10.9029 3.0845L10.8697 3.07122L10.7966 3.03137L10.7568 3.00481L10.6771 2.96496L10.6571 2.95168V2.9384L10.6306 2.93176L10.5907 2.91184L10.5177 2.87199L10.4911 2.86535V2.85207L10.4579 2.83879L10.4513 2.81886L10.4181 2.81222L10.3782 2.7923L10.3517 2.78566V2.76574L10.2521 2.72589V2.71261L10.2188 2.69933L10.1724 2.67277L10.1458 2.66613L10.1192 2.63956L10.086 2.61964L10.0263 2.57979L9.97978 2.53331L9.93993 2.4669L9.91337 2.41377L9.90673 2.40713V2.22119L9.92001 2.15478L9.93993 2.10829L9.95986 2.07509L9.99306 2.04189L10.0263 2.01532L10.0595 1.97548L10.0794 1.9622H10.0993V1.94891L10.179 1.91571L10.2056 1.90243L10.2188 1.88251H10.2388L10.2521 1.85594L10.345 1.82274L10.3583 1.80282L10.3915 1.78953L10.438 1.75633H10.4513V1.73641L10.511 1.71648L10.5575 1.68328L10.5974 1.67L10.6704 1.62351L10.7302 1.59031L10.7767 1.56375H10.7966V1.55046L10.8232 1.54382L10.8364 1.5239L10.8697 1.51726V1.49734L10.9161 1.47741L10.956 1.45749H10.9693V1.43757L11.029 1.41765L11.0954 1.39108H11.122L11.1286 1.36452H11.1486L11.1552 1.3446H11.1751V1.33132L11.2216 1.31139L11.2349 1.29147L11.2747 1.27155H11.288V1.25827L11.3345 1.23834L11.3744 1.21842L11.4208 1.1985L11.474 1.1653L11.5005 1.15201L11.5138 1.13209L11.5669 1.10553L11.6333 1.06568H11.6533L11.6666 1.03912L11.7662 0.999274V0.979352L11.8326 0.96607L11.8857 0.926225H11.9056V0.899661L11.9521 0.88638L12.0451 0.853176L12.0849 0.839894L12.1646 0.819971L12.2111 0.813331H12.3041L12.3306 0.800049Z" fill="#0190DB"/>
<path d="M3.31237 5.95334H3.4784L3.50496 5.95998V5.97326H3.61785L3.71082 6.00647L3.79051 6.05295L3.84364 6.0928L3.89677 6.11936L3.9831 6.17249L4.08935 6.22562L4.10263 6.2389L4.13584 6.25218L4.17568 6.27874L4.19561 6.28538L4.21553 6.30531L4.2753 6.33851L4.36163 6.39164L4.40811 6.39828L4.41475 6.42484L4.44132 6.43148L4.47452 6.4514L4.50773 6.45805L4.54093 6.49125L4.60734 6.52445L4.62062 6.53774L4.65382 6.55102L4.66047 6.5643L4.68039 6.57094V6.59086L4.71359 6.5975L4.80656 6.63735L4.82649 6.65063V6.66391L4.88625 6.68383L4.93274 6.71704L4.99251 6.75024L5.08548 6.80337L5.11868 6.82993L5.17181 6.8565L5.19837 6.87642V6.8897L5.23158 6.89634L5.29799 6.92955L5.34447 6.94947V6.96275L5.37768 6.97603L5.45073 7.01588L5.51049 7.04908L5.55698 7.06236V7.07564L5.58354 7.08228L5.59018 7.10221L5.61675 7.10885L5.64995 7.12213L5.67651 7.14869L5.74956 7.18854L5.78941 7.20846L5.82925 7.22174V7.23502L5.86246 7.24831L5.89566 7.27487L5.96871 7.30807V7.32135L5.99527 7.328L6.05504 7.36784L6.1613 7.42097L6.17458 7.43425L6.20778 7.44753V7.46081L6.23434 7.46745L6.29411 7.5073L6.3406 7.51394L6.34724 7.5405L6.41365 7.55378V7.56707L6.44021 7.57371L6.47341 7.60691L6.53318 7.64676L6.61287 7.6866V7.70652H6.64608L6.69256 7.73309L6.79218 7.79285L6.82538 7.80614L6.86522 7.8327L6.92499 7.8659L6.97148 7.89247L7.0246 7.91903L7.05117 7.94559L7.09101 7.96552L7.1375 7.9788L7.14414 7.99872L7.1707 8.00536L7.23047 8.04521L7.27696 8.06513V8.07841L7.33672 8.09833L7.38321 8.13154L7.44298 8.16474L7.48946 8.19795L7.54259 8.21787L7.56915 8.24443L7.62228 8.26435L7.68205 8.3042L7.72189 8.32412L7.7551 8.33076L7.77502 8.35069L7.82815 8.39053L7.9012 8.42373L7.92776 8.4503L7.96096 8.47022V8.4835L8.00745 8.49014L8.06058 8.51671L8.0805 8.53663L8.14027 8.56319V8.57647L8.16683 8.58311V8.60304H8.20003L8.23988 8.62296L8.28636 8.65616L8.37934 8.70265L8.41918 8.72921L8.4391 8.73585L8.44574 8.74914L8.47895 8.76242L8.50551 8.78234L8.552 8.80226L8.59184 8.82219L8.62505 8.83547V8.85539L8.68481 8.87531L8.69146 8.89523L8.72466 8.90852L8.85084 8.97492L8.85748 9.00149L8.89732 9.00813L8.95709 9.04133L9.00358 9.0679L9.10983 9.12102L9.19616 9.18079L9.26257 9.21399L9.26921 9.24056H9.30241V9.26048L9.33562 9.26712V9.2804L9.37546 9.28704V9.30033L9.42195 9.30697L9.44187 9.32025V9.34017L9.47507 9.34681L9.53484 9.37337L9.58797 9.39994L9.62117 9.4265L9.65438 9.43978L9.68094 9.45306V9.46635L9.72079 9.47963L9.76063 9.50619L9.79384 9.51947L9.8536 9.55932V9.57924L9.90009 9.58588L9.92001 9.59916L9.9665 9.61245L9.97314 9.63237L9.9997 9.63901L10.0395 9.65229V9.67221L10.0993 9.69214L10.106 9.71206L10.1657 9.73198L10.2122 9.76518L10.272 9.79839L10.3649 9.85152L10.3982 9.87808L10.4513 9.90464L10.5177 9.95113L10.5841 9.96441L10.604 9.98433L10.6239 9.99761V10.0109L10.6571 10.0242L10.7302 10.064L10.79 10.0972L10.8364 10.1238L10.9095 10.1703L10.9759 10.2101L11.0689 10.2566L11.1087 10.2699V10.2832L11.1419 10.2965L11.1751 10.323L11.2283 10.3496L11.3079 10.3961V10.416L11.3544 10.4226L11.4076 10.4492L11.4275 10.4691L11.5072 10.509L11.5736 10.5554L11.6201 10.5621L11.6267 10.5886L11.6533 10.5953L11.7263 10.6351L11.7662 10.6551L11.7927 10.6816L11.8658 10.7215L11.8923 10.7347V10.7547L11.9255 10.7613L11.9853 10.7879L12.0517 10.8277L12.1048 10.8543L12.1513 10.8875L12.2443 10.934L12.3306 10.9937L12.3904 11.007L12.417 11.0336L12.4834 11.0734L12.5099 11.0934L12.5564 11.1133V11.1266L12.5896 11.1398L12.7158 11.2062L12.749 11.2328L12.8221 11.266L12.8287 11.2793L12.8752 11.2926L12.9615 11.3523L13.0014 11.3723L13.0744 11.4188L13.1275 11.4453L13.1342 11.4719L13.1807 11.4785L13.2404 11.5184V11.5316L13.2869 11.5383L13.36 11.5781L13.3865 11.5848V11.6047L13.4197 11.618L13.5061 11.6711L13.5459 11.691L13.5526 11.711L13.5791 11.7176V11.7309L13.6256 11.7375L13.6588 11.7574L13.7053 11.7973V11.8106L13.7319 11.8172L13.7983 11.8836L13.8182 11.8903V11.9102L13.8381 11.9168L13.878 11.9899L13.8912 12.0031L13.9045 12.0364L13.9244 12.0895V12.1559H13.9377L13.951 12.2157L13.9576 12.2223V12.2555H13.9709V14.8255H13.9576L13.951 14.8654L13.9377 14.8853L13.9244 14.9251L13.8912 14.965L13.858 14.9982L13.8248 15.0247L13.7916 15.038L13.785 15.0513L13.6787 15.0845H13.526L13.4662 15.0646V15.0513L13.4065 15.0447L13.3068 14.9915L13.267 14.965L13.2404 14.9583V14.945L13.2072 14.9318L13.2006 14.9118L13.1674 14.9052L13.101 14.8654L13.0412 14.8255L13.0014 14.8122L12.935 14.7724L12.915 14.7525L12.8486 14.7259L12.8021 14.6993L12.7291 14.6528L12.6826 14.6263V14.613L12.6494 14.6064L12.6096 14.5798L12.5299 14.5399L12.49 14.5134V14.4868H12.4568L12.4502 14.4669H12.417L12.3904 14.447V14.4271H12.3572L12.3506 14.4071H12.3174L12.3107 14.3939L12.2775 14.3806L12.231 14.3673L12.2045 14.3606V14.3474L12.1713 14.3341L12.1447 14.3075L12.0318 14.2478L11.992 14.2278V14.2145L11.9654 14.2079L11.8724 14.1614L11.8259 14.1282L11.7861 14.1149L11.7529 14.1017V14.0817L11.7263 14.0751L11.6666 14.0352L11.6599 14.0087L11.6333 14.002V13.9888H11.6001L11.5935 13.9688H11.5603L11.5537 13.9489H11.5271V13.9356L11.474 13.929L11.4341 13.9091L11.4076 13.9024V13.8891L11.3744 13.8759L11.3146 13.836L11.2681 13.8095V13.7962L11.2349 13.7895L11.1951 13.7696L11.1685 13.763V13.743L11.1353 13.7298L11.0556 13.6899L11.0025 13.6567L10.9825 13.6368L10.9161 13.6102L10.8697 13.5837L10.8165 13.5505L10.79 13.5438V13.5305L10.7568 13.5173L10.7501 13.4973L10.7169 13.4907L10.6771 13.4641L10.6173 13.4309L10.5509 13.3911L10.4845 13.3579L10.4646 13.338L10.4181 13.318V13.2981L10.3915 13.2915L10.3782 13.2848V13.2715L10.345 13.2649V13.2516H10.2985L10.2188 13.2051L10.179 13.1786L10.1325 13.152L10.0595 13.1122L10.013 13.079L9.95322 13.0524L9.90009 13.0192L9.8536 12.9926V12.9794L9.8204 12.9727L9.78719 12.9461L9.75399 12.9329L9.69422 12.8997L9.68094 12.893V12.8797L9.6411 12.8665L9.62117 12.8532V12.8333H9.58797L9.54148 12.8133V12.8H9.52156V12.7735H9.48836L9.48172 12.7602L9.44187 12.7469L9.42195 12.7336V12.7137H9.38874L9.3821 12.6938H9.3489L9.34226 12.6739H9.30241L9.236 12.634L9.17624 12.6008L9.1696 12.5875L9.14303 12.5809V12.5543H9.10983L9.10319 12.5344H9.06998L9.0235 12.5145L8.99029 12.5079L8.95709 12.4746L8.90396 12.4481L8.86412 12.4215L8.81763 12.4082V12.3883L8.78443 12.375L8.74458 12.3485L8.66489 12.3086L8.61177 12.2688L8.56528 12.2489L8.48559 12.2024L8.44574 12.1758L8.36605 12.136L8.33949 12.1293V12.116L8.30629 12.1028L8.2266 12.0496L8.16683 12.0297L8.14027 12.0031L8.09378 11.9699L8.06058 11.9567L7.98753 11.9168L7.96096 11.9102V11.8969L7.92776 11.8836L7.92112 11.8637L7.88791 11.857L7.80822 11.8172L7.7883 11.8106V11.7906L7.76174 11.784L7.72189 11.7707V11.7574L7.68869 11.7442L7.65548 11.7242L7.63556 11.7043L7.58244 11.691V11.6777L7.54923 11.6645L7.46954 11.618L7.40313 11.5781V11.5649L7.36993 11.5582L7.29024 11.5117L7.24375 11.4852L7.1707 11.4453L7.07109 11.3855L7.0246 11.359L6.9914 11.3523V11.3324L6.96484 11.3258L6.89179 11.2859L6.85858 11.2527L6.8121 11.2328L6.74569 11.193L6.72577 11.1863L6.71913 11.1598H6.68592L6.61951 11.1266L6.58631 11.1066L6.57967 11.0934L6.51326 11.0668L6.50662 11.0469L6.47341 11.0402L6.44021 11.0137V11.0004L6.41365 10.9937V10.9805H6.3738L6.34724 10.9672L6.3406 10.9406H6.30739L6.21442 10.8941L6.1613 10.8543L6.09489 10.8277L6.05504 10.8012L6.02848 10.7945V10.7812L5.99527 10.768L5.98199 10.748L5.92887 10.7281L5.85582 10.6816L5.78941 10.6551V10.6418L5.7562 10.6285L5.723 10.6086L5.70308 10.5886L5.63667 10.5621L5.61011 10.5422L5.5769 10.5355V10.5156L5.55034 10.509L5.47729 10.4691L5.41088 10.4226L5.33119 10.3761L5.27806 10.3496L5.26478 10.3363L5.2183 10.3164L5.13861 10.2699L5.09212 10.2433V10.23L5.05892 10.2234L5.02571 10.1968L4.99251 10.1836L4.89289 10.1171L4.86633 10.1105L4.87297 17.183L4.89289 17.2029L4.95266 17.2295L4.99251 17.2494L5.01907 17.276L5.05227 17.2959V17.3092L5.09876 17.3158L5.15189 17.3424L5.17845 17.3689L5.23158 17.3955L5.29799 17.4354L5.33119 17.4486L5.37104 17.4752L5.45073 17.515L5.51049 17.5549L5.53042 17.5615L5.53706 17.5748L5.57026 17.5881V17.6147H5.63667L5.64995 17.6412L5.67651 17.6479L5.73628 17.6877L5.78277 17.7076V17.7209L5.81597 17.7342L5.84918 17.7541V17.7674L5.88902 17.774L5.94879 17.8072L5.99527 17.8404L6.0484 17.8604L6.08161 17.8936V17.9069L6.12809 17.9135L6.15465 17.9268V17.9467H6.18786L6.2277 17.9666L6.29411 18.0131L6.32732 18.0264L6.51326 18.1326L6.53318 18.1459V18.1658L6.56639 18.1725L6.60623 18.1924V18.2123H6.63944V18.2256L6.69256 18.2389L6.73241 18.2655L6.77889 18.2721L6.78553 18.2987L6.8121 18.3053L6.88515 18.3452L6.92499 18.3651L6.95156 18.3916L7.01132 18.4248L7.05781 18.4381L7.06445 18.458L7.09101 18.4647L7.13086 18.478V18.4912H7.15742L7.17734 18.5112L7.19727 18.5245V18.5377L7.25703 18.5577L7.30352 18.5909L7.36329 18.6241L7.44298 18.6772L7.52267 18.717L7.56915 18.7436V18.7635H7.60236L7.6422 18.7901V18.8034L7.69533 18.81L7.71525 18.8233V18.8366L7.74846 18.8499L7.87463 18.9163L7.88791 18.9295L7.92112 18.9428L7.92776 18.9561L7.94768 18.9627V18.9827L7.98089 18.9893L8.06058 19.0292L8.12034 19.0624L8.16019 19.0823L8.20003 19.0956V19.1088L8.23324 19.1221L8.30629 19.1686L8.33949 19.1819L8.36605 19.2085L8.4391 19.2483L8.49887 19.2815V19.3014L8.53208 19.3081V19.3214L8.57856 19.328L8.66489 19.3811L8.71802 19.401V19.4143L8.74458 19.421L8.81763 19.4608L8.85748 19.4874L8.8774 19.494L8.90396 19.5206L8.95709 19.5471L8.99029 19.5671L9.03678 19.587L9.08327 19.6202L9.12975 19.6401V19.6534L9.16296 19.6667L9.2028 19.6866L9.236 19.6999V19.7132L9.26257 19.7198L9.29577 19.7397L9.34226 19.753V19.7729L9.40203 19.7862L9.40867 19.7995L9.44187 19.8061V19.8327L9.47507 19.846L9.50164 19.8593V19.8792H9.53484L9.58133 19.9057L9.68094 19.9655L9.70086 19.9722L9.7075 19.9987H9.75399V20.012L9.78055 20.0186L9.84032 20.0585L9.91337 20.0917L9.92001 20.105L9.95986 20.1116V20.1249H9.98642L9.9997 20.1515L10.0196 20.1581V20.178H10.0528L10.0927 20.1979L10.1259 20.2046L10.1325 20.2312L10.1591 20.2378L10.2188 20.271L10.2853 20.3042L10.3384 20.344L10.4048 20.3706L10.4114 20.3905L10.438 20.3972L10.4778 20.4105V20.4237H10.5044L10.5177 20.4503L10.5775 20.4835L10.6107 20.4968L10.6505 20.5233L10.7103 20.5566L10.7501 20.5765L10.79 20.603L10.8099 20.6097L10.8165 20.623L10.8497 20.6362L10.8962 20.6694L10.9161 20.6761V20.696H10.9493L10.9825 20.7226V20.7359H11.029V18.903H11.0158V18.8897L10.9892 18.8831L10.9294 18.8631L10.8763 18.8366L10.8298 18.8034L10.7368 18.7569L10.7036 18.737L10.6837 18.717L10.6239 18.7038L10.5907 18.6706L10.5376 18.644L10.4978 18.6174L10.4513 18.5909V18.5776L10.4181 18.5709L10.3716 18.5377L10.2919 18.4979L10.2853 18.4846L10.2321 18.4647L10.1392 18.4116L10.1126 18.4049V18.3916L10.0794 18.3784L10.0395 18.3651V18.3452L10.013 18.3385L9.97314 18.3252V18.3119L9.93329 18.3053V18.2854H9.90673L9.90009 18.2588L9.87353 18.2522L9.86688 18.2389L9.80048 18.219L9.72743 18.1658L9.69422 18.1526L9.6411 18.126L9.62781 18.1061L9.59461 18.0928V18.0795L9.56141 18.0729L9.48172 18.033L9.45515 18.0264V18.0065L9.42195 17.9932L9.32234 17.9401L9.28913 17.9201L9.26921 17.9002L9.2028 17.8737L9.17624 17.8471L9.13639 17.8338L9.10319 17.8139L9.07662 17.8072V17.794L9.04342 17.7807L8.97701 17.7342L8.93717 17.7143L8.86412 17.6744L8.83091 17.6479L8.78443 17.6279L8.70474 17.5815L8.60512 17.5283L8.55864 17.5084V17.4951L8.52543 17.4818L8.48559 17.4553V17.442L8.45903 17.4354L8.45239 17.4221L8.41254 17.4088L8.35941 17.3822L8.35277 17.3689L8.29965 17.349L8.23988 17.3092L8.21996 17.3025L8.21332 17.2893L8.16019 17.2693L8.14027 17.2561V17.2428L8.10706 17.2361L8.07386 17.2096L8.04065 17.1963L7.9676 17.1564L7.9344 17.1498L7.92776 17.1232L7.9012 17.1166L7.82815 17.0768L7.72853 17.0236L7.66877 16.9838L7.62228 16.9572V16.9439L7.58908 16.9373L7.52931 16.9041L7.48282 16.8709L7.4629 16.8642L7.45626 16.851L7.4297 16.8443V16.8178H7.39649L7.38985 16.7978H7.35665L7.29024 16.7646L7.24375 16.7314L7.22383 16.7248L7.21055 16.7049L7.16406 16.6916L7.11094 16.665L7.10429 16.6451L7.07109 16.6385L7.03125 16.6119L6.97148 16.5787L6.87187 16.5256L6.83866 16.5056L6.81874 16.4857L6.76561 16.4724V16.4525L6.73241 16.4459L6.72577 16.4259L6.69256 16.4193L6.65936 16.3927L6.61287 16.3728L6.56639 16.3263V16.2998L6.54646 16.2931V16.2798H6.52654V16.2466L6.49998 16.24L6.4867 16.2134L6.46677 16.1072V13.4243H6.4867V13.3579L6.50662 13.3512L6.51326 13.3048L6.55975 13.2383L6.60623 13.1985L6.61287 13.1852H6.62615V13.1719L6.69256 13.1587L6.75233 13.1321L6.77889 13.1255H6.88515V13.1387H6.94491L7.00468 13.1653L7.03789 13.1719L7.07109 13.2051L7.1375 13.2383L7.19063 13.2782L7.24375 13.2981L7.27032 13.3247L7.35001 13.3645V13.3844H7.38321L7.4297 13.411L7.4961 13.4442L7.52931 13.4509V13.4708H7.56915L7.60236 13.504V13.5173L7.62892 13.5239V13.5438L7.66877 13.5505L7.78166 13.6102L7.83479 13.6368L7.84807 13.6567L7.92112 13.6966L7.94104 13.7098V13.7231L7.97424 13.7298V13.743L8.00081 13.7497V13.7696H8.03401V13.7829H8.06722L8.07386 13.8028L8.12034 13.8095L8.18011 13.8493V13.8626L8.21996 13.8692L8.24652 13.8825V13.9024H8.27972L8.35941 13.9489L8.44574 14.002L8.552 14.0552L8.59184 14.0684L8.62505 14.1017L8.68481 14.1415L8.73794 14.1681L8.80435 14.2079L8.83755 14.2212L8.87076 14.2478V14.261L8.90396 14.2677L8.93717 14.281L9.00358 14.3142L9.0567 14.3474L9.07662 14.3606L9.12311 14.3739V14.3872L9.14967 14.3939L9.15631 14.4138L9.18288 14.4204L9.21608 14.4337L9.22272 14.447L9.25593 14.4603L9.26257 14.4735L9.28249 14.4802V14.5001H9.31569L9.36218 14.5267L9.46179 14.5864L9.5282 14.6196L9.59461 14.6595L9.63446 14.6794L9.6743 14.706L9.69422 14.7126L9.71415 14.7325L9.77391 14.7591V14.7724L9.80048 14.779L9.84032 14.8056L9.87353 14.8189L9.90009 14.8321V14.8454L9.93993 14.8587L9.9997 14.8919L10.0993 14.9583L10.179 14.9915L10.2321 15.0247L10.2388 15.038L10.2786 15.0579L10.2853 15.0779L10.3185 15.0845L10.3716 15.1111L10.4712 15.1642L10.5177 15.1974L10.5907 15.2306L10.6173 15.2572L10.6571 15.2771L10.7036 15.2904L10.7103 15.3103L10.7368 15.3169L10.7966 15.3568L10.8431 15.3767V15.39L10.9029 15.4099L10.9493 15.4431L11.0091 15.4763L11.0556 15.5029L11.1286 15.5427L11.1552 15.5494V15.5693L11.1884 15.5826L11.2482 15.6158L11.288 15.6357L11.3212 15.6623V15.6755L11.3544 15.6822L11.3876 15.6955L11.4673 15.7419L11.5138 15.7751L11.6267 15.8283L11.6466 15.8482L11.6931 15.8748L11.6998 15.8947L11.7529 15.908L11.806 15.9412V15.9544L11.8459 15.9611L11.9455 16.0142L11.9853 16.0408L12.0052 16.0474L12.0119 16.0607L12.0451 16.074L12.0716 16.0939L12.1181 16.1138L12.158 16.1338L12.1912 16.147V16.167L12.2509 16.1869L12.2576 16.2068L12.3174 16.2267L12.3638 16.2599L12.4236 16.2931L12.4701 16.3263L12.5232 16.3529L12.5697 16.3795L12.5896 16.3927L12.6361 16.406L12.6428 16.4259L12.6693 16.4326L12.7424 16.4791L12.7689 16.499L12.8021 16.5123L12.8752 16.5521L12.9416 16.592L12.9814 16.6119L13.0213 16.6385L13.0877 16.665V16.6849L13.1209 16.6982L13.2072 16.7513L13.2537 16.758L13.2604 16.7846L13.2869 16.7912L13.3467 16.8244L13.4463 16.8908L13.4994 16.9174L13.5592 16.9506V16.9705H13.599L13.6256 16.9904L13.6588 17.0037L13.6987 17.0303L13.785 17.1166L13.8381 17.1896L13.8713 17.2228L13.9045 17.2893L13.9244 17.349V17.4088L13.9444 17.4154V17.4951L13.9709 17.5018V23.8703L13.9643 23.8836H13.951L13.9377 23.9965L13.9311 24.0098H13.9178L13.9112 24.0496L13.8846 24.1028L13.878 24.1293H13.858L13.8447 24.1625L13.8049 24.2157L13.7783 24.2489L13.7584 24.2555L13.7385 24.2887L13.6721 24.3418L13.6256 24.3618L13.619 24.3684H13.5791V24.3883L13.5459 24.4082L13.5127 24.4215L13.5061 24.4348L13.4463 24.468L13.3865 24.5145L13.34 24.5278L13.3068 24.5344V24.5477L13.2272 24.5875L13.2006 24.6075H13.1607V24.6274L13.1275 24.6473H13.101V24.6606L13.0611 24.6672V24.6805L13.0213 24.6872L13.0146 24.7071L12.9881 24.7204H12.9682V24.7403L12.8818 24.7536L12.8221 24.7735L12.7424 24.7868L12.5896 24.7934L12.583 24.8H12.4103V24.7868H12.2576L12.2377 24.7801V24.7668H12.1779L12.1646 24.7602V24.7469H12.0916L12.0318 24.7403L12.0052 24.7204L11.9654 24.7071V24.6938H11.9322L11.8658 24.654L11.8525 24.634L11.8259 24.6207V24.6075H11.7927V24.5875H11.7595L11.7529 24.5676L11.7263 24.561L11.6666 24.5411L11.6134 24.5145L11.547 24.468L11.5072 24.4547L11.4408 24.4149L11.4208 24.395L11.3677 24.3817V24.3684L11.3279 24.3551L11.2349 24.2953L11.1884 24.2688V24.2555L11.1552 24.2489L11.1154 24.2223L11.0556 24.1891L10.9892 24.1492L10.8962 24.1028L10.8564 24.0762L10.7833 24.0364L10.7501 24.0231V24.0098L10.7103 24.0031V23.9899L10.6771 23.9766L10.5974 23.9235L10.5376 23.8903L10.511 23.877L10.5044 23.8504H10.4778V23.8305H10.4446L10.438 23.8106L10.4114 23.8039V23.7906H10.3782V23.7707H10.345L10.3384 23.7508L10.2919 23.7442L10.2188 23.711L10.1923 23.7043L10.1856 23.6844L10.1192 23.6512L10.0794 23.6246L9.9997 23.5848L9.95986 23.5582L9.88017 23.5184L9.8204 23.4785L9.76063 23.4453L9.68094 23.3988L9.63446 23.3656L9.54148 23.3191L9.44187 23.2594L9.39538 23.2328L9.36218 23.2262V23.2062L9.33562 23.1996L9.26257 23.1598L9.25593 23.1398L9.22272 23.1332L9.18288 23.1066L9.12311 23.0734L9.0567 23.0336L9.01686 23.0137V23.0004L8.99693 22.9937V22.9738H8.96373V22.9539H8.93053L8.92389 22.934H8.88404V22.9141L8.85084 22.9074L8.81099 22.8875V22.8742L8.78443 22.8676V22.8543L8.75786 22.8476L8.72466 22.8344V22.8144H8.68481V22.7945L8.63833 22.7879L8.59184 22.7613L8.49887 22.7281V22.7148L8.46567 22.7015L8.4059 22.6484L8.35941 22.6351V22.6219L8.32621 22.6152L8.2598 22.5754L8.20003 22.5422V22.5156H8.14691L8.09378 22.4824L8.07386 22.4625L8.02737 22.4426L7.9676 22.4027L7.9344 22.3828L7.86799 22.3562L7.84143 22.3363V22.323L7.80822 22.3164L7.74182 22.2898L7.73517 22.2699L7.66877 22.2367L7.60236 22.1968L7.54923 22.1703L7.53595 22.1504L7.50275 22.1371V22.1238L7.46954 22.1171L7.41641 22.0839L7.35001 22.0574L7.32344 22.0375V22.0242L7.29024 22.0175L7.25039 21.991L7.19063 21.9578L7.15078 21.9378V21.9246L7.12422 21.9179L7.05781 21.8847L7.03125 21.8582V21.8382L6.98476 21.8316L6.94491 21.8117L6.91171 21.7984L6.87851 21.7718L6.8453 21.7585L6.78553 21.7253L6.77889 21.7121L6.71249 21.6855L6.61287 21.6257L6.56639 21.5992L6.53318 21.5925V21.5726L6.50662 21.566L6.49998 21.5527L6.43357 21.5261L6.42693 21.5062L6.39372 21.4996L6.32732 21.473V21.4531L6.29411 21.4398L6.1945 21.3867L6.1613 21.3667L6.14137 21.3468L6.11481 21.3402V21.3269L6.05504 21.3136L5.95543 21.2472L5.90894 21.2206V21.2074L5.87574 21.2007L5.83589 21.1741L5.77613 21.1409L5.67651 21.0878L5.64331 21.0679L5.62339 21.048L5.56362 21.0347L5.53042 21.0015L5.47729 20.9749L5.43744 20.9484L5.37768 20.9152L5.36439 20.8952L5.31791 20.8753L5.2515 20.8355L5.23158 20.8288L5.22494 20.8023H5.19173L5.09876 20.7558L5.05892 20.7292L5.01243 20.7027V20.6894L4.97923 20.6827L4.95266 20.6694L4.94602 20.6562L4.91282 20.6429L4.83977 20.603L4.79992 20.5765L4.72023 20.5366L4.6339 20.4769L4.58077 20.4437V20.4304L4.52101 20.4237L4.49444 20.4038V20.3905L4.46124 20.3839L4.43468 20.3706L4.42804 20.344L4.40147 20.3374V20.3241H4.36163L4.33506 20.3108L4.32842 20.2843H4.28194L4.22881 20.2511L4.20889 20.2312L4.1624 20.2112V20.1913L4.13584 20.1847L4.12256 20.1714L4.08935 20.1581L4.03623 20.1382L3.9831 20.1116L3.97646 20.0917L3.94325 20.0851L3.89677 20.0518L3.8038 20.0054L3.71082 19.9522L3.68426 19.9257V19.9057L3.63778 19.8991L3.61121 19.8858L3.60457 19.8725L3.57137 19.8593V19.846H3.5448V19.8327L3.48504 19.8261L3.45183 19.7929L3.40535 19.7729L3.33894 19.7331L3.29245 19.7198L3.25925 19.6866L3.22604 19.66L3.17956 19.6468L3.12643 19.6136V19.5936L3.08659 19.587L3.06002 19.5737L3.04674 19.5538L2.98033 19.5272L2.92056 19.494L2.90728 19.4874V19.4741L2.88072 19.4675L2.87408 19.4542L2.80767 19.4342L2.72134 19.3745L2.70142 19.3612L2.66157 19.3479L2.60845 19.3147L2.56196 19.3014V19.2815L2.52876 19.2682L2.48227 19.235L2.47563 19.2217L2.42914 19.2018L2.4225 19.1819L2.3893 19.1686L2.30961 19.0823L2.24984 19.0225L2.20999 18.9893L2.19007 18.9561L2.17015 18.9495L2.14359 18.903L2.1303 18.8631L2.12366 18.8299H2.10374V18.7967L2.07718 18.7901L2.01741 18.6639L2.00413 18.6307V18.5709H1.99085L1.98421 18.5178L1.96428 18.5045L1.951 18.4514V18.4248H1.93772L1.92444 18.3452V7.29479L1.93108 7.26823H1.94436V7.15533L1.95764 7.12213L1.97757 7.02916L2.01077 6.94947L2.04397 6.88306L2.0639 6.87642L2.07054 6.84321L2.0971 6.82993L2.11038 6.77681L2.11702 6.7436L2.12366 6.71704L2.14359 6.69712L2.16351 6.67055H2.18343L2.19007 6.64399L2.21664 6.60414L2.2764 6.53774L2.35609 6.45805L2.42914 6.39828L2.46899 6.36507L2.52876 6.35843V6.33851L2.56196 6.33187L2.5686 6.31859L2.58852 6.31195L2.6018 6.28538L2.65493 6.2721V6.25882L2.69478 6.2389H2.72798L2.73462 6.21233L2.75454 6.20569L2.78111 6.17913L2.80767 6.15921H2.82759V6.14593L2.86744 6.126H2.88736V6.11272L2.94049 6.08616L3.0069 6.04631H3.02682V6.03303L3.06002 6.01975L3.11979 6.01311L3.12643 5.99983L3.19284 5.99319L3.19948 5.97991L3.27917 5.97326L3.31237 5.95334Z" fill="#004EA1"/>
</svg>
