<svg viewBox="0 0 24 25" fill="currentColor" xmlns="http://www.w3.org/2000/svg">
<path d="M0 12.181C5.51983e-05 11.5686 0.221651 10.9917 0.698904 10.5198L0.75324 10.4692L10.458 2.10539C11.0159 1.58399 11.6506 1.53236 12.0167 1.53235C12.4051 1.53235 12.8938 1.62519 13.3282 1.91051L13.5104 2.04429L13.5327 2.06325L23.2066 10.4703L23.3824 10.6367C23.768 11.0351 24.0489 11.5781 23.9929 12.2431C23.9591 13.5001 22.9016 14.4624 21.6927 14.4626H21.5765L21.5978 19.3798V19.384L21.5904 19.6052C21.5875 19.6498 21.5827 19.693 21.5787 19.7347V20.2909C21.5785 21.7142 20.4122 22.8673 18.9727 22.8675H18.3665C18.3455 22.8675 18.302 22.8642 18.2482 22.8622C18.1781 22.8651 18.1172 22.8675 18.082 22.8675H15.9416C14.502 22.8675 13.3358 21.7143 13.3356 20.2909V16.9939C13.3354 16.9269 13.2819 16.875 13.2142 16.8748H10.7893C10.7215 16.8748 10.6682 16.9268 10.6679 16.9939V20.2909C10.6677 21.7142 9.50144 22.8674 8.0619 22.8675H5.94388C5.87979 22.8675 5.81836 22.863 5.76916 22.8601C5.73027 22.8624 5.68464 22.8675 5.63705 22.8675H5.03083C3.59123 22.8674 2.42506 21.7143 2.42486 20.2909V16.0953C2.42485 16.0829 2.4281 16.0431 2.43018 15.991H2.42805V14.4626H2.3034C1.01672 14.4626 0 13.4524 0 12.181ZM2.18194 12.181C2.18194 12.2349 2.20059 12.2615 2.21391 12.2747C2.22729 12.2879 2.2526 12.3053 2.3034 12.3053H3.51903C4.12155 12.3053 4.61 12.7882 4.61 13.3839V15.991C4.60998 16.0259 4.60809 16.0606 4.60467 16.0953C4.60521 16.0892 4.60553 16.084 4.60574 16.0806C4.60607 16.075 4.60679 16.0714 4.6068 16.0711V20.2909C4.607 20.5228 4.79629 20.7101 5.03083 20.7102H5.63705L5.65409 20.7091C5.66217 20.7085 5.67102 20.7069 5.68286 20.706L5.84586 20.7049L5.94388 20.7102H8.0619C8.29638 20.7101 8.48573 20.5227 8.48593 20.2909V16.9939C8.48622 15.7354 9.51643 14.7175 10.7893 14.7175H13.2142C14.487 14.7176 15.5173 15.7355 15.5176 16.9939V20.2909C15.5178 20.5228 15.707 20.7102 15.9416 20.7102H18.082C18.1404 20.7102 18.1551 20.7097 18.163 20.7091L18.3398 20.7112L18.3281 20.7102H18.9727C19.2071 20.71 19.3965 20.5227 19.3967 20.2909V19.6873C19.3967 19.6476 19.3987 19.6078 19.4031 19.5683C19.4114 19.4948 19.4157 19.4372 19.4159 19.3892L19.3893 13.3881C19.388 13.1013 19.5021 12.8256 19.7068 12.6223C19.9115 12.419 20.1901 12.3053 20.4802 12.3053H21.6927C21.7114 12.3052 21.7448 12.2964 21.7758 12.2663C21.8038 12.239 21.8141 12.2097 21.8141 12.181L21.8163 12.1399C21.8056 12.1283 21.7907 12.112 21.7694 12.0935L21.7672 12.0925L12.119 3.70652C12.1159 3.70528 12.1111 3.70415 12.1051 3.70231C12.081 3.69494 12.0488 3.68967 12.0167 3.68967C11.9771 3.68967 11.9512 3.68997 11.9336 3.69178C11.9225 3.70221 11.9121 3.71342 11.9005 3.72338L2.23415 12.0535C2.20282 12.086 2.19374 12.104 2.19153 12.1093C2.189 12.1155 2.18197 12.1349 2.18194 12.181Z" fill="currentColor"/>
</svg>
