<svg viewBox="0 0 24 25" fill="currentColor" xmlns="http://www.w3.org/2000/svg">
<path d="M20.7753 12.6665C20.7753 7.82005 16.8465 3.89122 12 3.89122C7.15355 3.89122 3.22472 7.82005 3.22472 12.6665C3.22472 17.513 7.15355 21.4418 12 21.4418C16.8465 21.4418 20.7753 17.513 20.7753 12.6665ZM10.8876 16.6216V12.6665C10.8876 12.0522 11.3857 11.5541 12 11.5541C12.6143 11.5541 13.1124 12.0522 13.1124 12.6665V16.6216C13.1124 17.2359 12.6143 17.7339 12 17.7339C11.3857 17.7339 10.8876 17.2359 10.8876 16.6216ZM12.0097 7.59909C12.624 7.59909 13.122 8.09711 13.122 8.71145C13.122 9.32579 12.624 9.82381 12.0097 9.82381H12C11.3857 9.82381 10.8876 9.32579 10.8876 8.71145C10.8876 8.09711 11.3857 7.59909 12 7.59909H12.0097ZM23 12.6665C23 18.7416 18.0751 23.6665 12 23.6665C5.92487 23.6665 1 18.7416 1 12.6665C1 6.59137 5.92487 1.6665 12 1.6665C18.0751 1.6665 23 6.59137 23 12.6665Z" fill="currentColor"/>
</svg>
