<svg viewBox="0 0 24 25" fill="currentColor" xmlns="http://www.w3.org/2000/svg">
<path d="M2 19.4292V5.77071C2 4.92978 2.3343 4.12353 2.92893 3.5289C3.52355 2.93427 4.3298 2.59998 5.17073 2.59998H11.0244C11.6979 2.59998 12.2439 3.14597 12.2439 3.81949C12.2439 4.49301 11.6979 5.039 11.0244 5.039H5.17073C4.97667 5.039 4.79061 5.11615 4.65339 5.25337C4.51617 5.39059 4.43902 5.57665 4.43902 5.77071V19.4292L4.45332 19.5731C4.48149 19.7136 4.55059 19.8438 4.65339 19.9466C4.79061 20.0838 4.97667 20.161 5.17073 20.161H18.8293C19.0233 20.161 19.2094 20.0838 19.3466 19.9466C19.4838 19.8094 19.561 19.6233 19.561 19.4292V13.5756C19.561 12.9021 20.107 12.3561 20.7805 12.3561C21.454 12.3561 22 12.9021 22 13.5756V19.4292C22 20.2702 21.6657 21.0764 21.0711 21.6711C20.4764 22.2657 19.6702 22.6 18.8293 22.6H5.17073C4.3298 22.6 3.52355 22.2657 2.92893 21.6711C2.3343 21.0764 2 20.2702 2 19.4292ZM22 9.67315C22 10.3467 21.454 10.8927 20.7805 10.8927C20.107 10.8927 19.561 10.3467 19.561 9.67315V6.76347L12.8622 13.4622C12.386 13.9385 11.614 13.9385 11.1378 13.4622C10.6615 12.986 10.6615 12.214 11.1378 11.7377L17.8365 5.039H14.9268C14.2533 5.039 13.7073 4.49301 13.7073 3.81949C13.7073 3.14597 14.2533 2.59998 14.9268 2.59998H20.7805L20.9053 2.60664C21.5202 2.66917 22 3.18812 22 3.81949V9.67315Z" fill="currentColor"/>
</svg>
