<svg viewBox="0 0 25 25" fill="currentColor" xmlns="http://www.w3.org/2000/svg">
<g clip-path="url(#clip0_174_582)">
<path d="M22.3182 8.93335L14.1864 14.113C14.1741 14.1209 14.1618 14.1291 14.1491 14.1365C13.7122 14.3903 13.2228 14.539 12.7205 14.5722L12.5053 14.5786C11.9281 14.5786 11.3607 14.4264 10.8615 14.1365L10.8232 14.113L2.68182 8.93228V18.9454C2.68182 19.5479 3.17023 20.0363 3.77273 20.0363H21.2273C21.8298 20.0363 22.3182 19.5479 22.3182 18.9454V8.93335ZM22.3182 5.85451C22.3182 5.25202 21.8298 4.76361 21.2273 4.76361H3.77273C3.17023 4.76361 2.68182 5.25202 2.68182 5.85451V6.34564L11.9631 12.253C12.128 12.3474 12.3152 12.3968 12.5053 12.3968L12.6481 12.3883C12.7877 12.3698 12.9224 12.3232 13.0455 12.253L22.3182 6.34564V5.85451ZM24.5 18.9454C24.5 20.7529 23.0348 22.2182 21.2273 22.2182H3.77273C1.96525 22.2182 0.5 20.7529 0.5 18.9454V5.85451C0.5 4.04704 1.96525 2.58179 3.77273 2.58179H21.2273C23.0348 2.58179 24.5 4.04704 24.5 5.85451V18.9454Z" fill="currentColor"/>
</g>
<defs>
<clipPath id="clip0_174_582">
<rect width="24" height="24" fill="white" transform="translate(0.5 0.400024)"/>
</clipPath>
</defs>
</svg>
