<svg viewBox="0 0 24 24" fill="currentColor" xmlns="http://www.w3.org/2000/svg">
<path d="M22.5695 18.1987C23.3596 18.1987 24 18.8391 24 19.6292C24 20.4192 23.3596 21.0596 22.5695 21.0596H8.5828C7.79278 21.0596 7.15234 20.4192 7.15234 19.6292C7.15234 18.8391 7.79278 18.1987 8.5828 18.1987H22.5695ZM22.5695 10.5696C23.3596 10.5696 24 11.21 24 12C24 12.79 23.3596 13.4305 22.5695 13.4305H8.5828C7.79278 13.4305 7.15234 12.79 7.15234 12C7.15234 11.21 7.79278 10.5696 8.5828 10.5696H22.5695ZM22.5695 2.94043C23.3596 2.94043 24 3.58087 24 4.37089C24 5.16091 23.3596 5.80135 22.5695 5.80135H8.5828C7.79278 5.80135 7.15234 5.16091 7.15234 4.37089C7.15234 3.58087 7.79278 2.94043 8.5828 2.94043H22.5695Z" fill="currentColor"/>
<path d="M2.22519 3.41725L2.32329 3.42222C2.80388 3.47133 3.17883 3.87733 3.17883 4.37089V8.50334H3.49671C4.0234 8.50334 4.45036 8.9303 4.45036 9.45698C4.45036 9.98366 4.0234 10.4106 3.49671 10.4106H0.95367C0.426989 10.4106 2.91057e-05 9.98366 2.91057e-05 9.45698C2.91057e-05 8.9303 0.426989 8.50334 0.95367 8.50334H1.27155V5.32453H0.95367C0.426989 5.32453 2.91057e-05 4.89757 2.91057e-05 4.37089C2.91057e-05 3.84421 0.426989 3.41725 0.95367 3.41725H2.22519Z" fill="currentColor"/>
<path d="M2.54307 16.0642C2.54307 15.7798 2.42058 15.6387 2.2761 15.5662C2.12962 15.493 1.86818 15.4514 1.52983 15.5799L1.37958 15.6457C0.908609 15.8808 0.336053 15.6894 0.100608 15.2186C-0.134655 14.7475 0.0568012 14.1751 0.52776 13.9396L0.854333 13.7968C1.62397 13.506 2.44016 13.5164 3.12792 13.8601C3.93684 14.2646 4.45036 15.0774 4.45036 16.0642C4.4503 16.6931 4.14125 17.2176 3.86178 17.5902C3.57481 17.9728 3.20473 18.3404 2.89945 18.6457C2.80173 18.7434 2.7111 18.8371 2.62503 18.9251H3.49671L3.59481 18.9301C4.0754 18.9792 4.45036 19.3852 4.45036 19.8787C4.45027 20.3722 4.07536 20.7783 3.59481 20.8274L3.49671 20.8324H0.95367C0.427047 20.8324 0.000123116 20.4053 2.90858e-05 19.8787C2.90858e-05 19.2497 0.309105 18.7253 0.588605 18.3527C0.875567 17.9701 1.24562 17.6025 1.55094 17.2972C1.88128 16.9669 2.14715 16.6984 2.33695 16.4454C2.53254 16.1845 2.54292 16.0724 2.54307 16.0642Z" fill="currentColor"/>
</svg>
