<svg viewBox="0 0 25 25" fill="currentColor" xmlns="http://www.w3.org/2000/svg">
<path d="M1.5 20.3002V4.90011C1.5 4.02489 1.84793 3.18577 2.4668 2.5669C3.08567 1.94803 3.92479 1.6001 4.80001 1.6001H9.20003C9.80754 1.6001 10.3 2.09259 10.3 2.7001C10.3 3.30762 9.80754 3.80011 9.20003 3.80011H4.80001C4.50827 3.80011 4.22857 3.91608 4.02228 4.12237C3.81598 4.32866 3.70001 4.60837 3.70001 4.90011V20.3002C3.70001 20.5919 3.81598 20.8716 4.02228 21.0779C4.22857 21.2842 4.50827 21.4002 4.80001 21.4002H9.20003C9.80754 21.4002 10.3 21.8927 10.3 22.5002C10.3 23.1077 9.80754 23.6002 9.20003 23.6002H4.80001C3.92479 23.6002 3.08567 23.2523 2.4668 22.6334C1.84793 22.0145 1.5 21.1754 1.5 20.3002ZM16.1223 6.32238C16.5251 5.91965 17.162 5.8948 17.594 6.24719L17.6778 6.32238L23.1778 11.8224C23.6074 12.252 23.6074 12.9483 23.1778 13.3779L17.6778 18.8779C17.2482 19.3075 16.5519 19.3075 16.1223 18.8779C15.6927 18.4483 15.6927 17.752 16.1223 17.3224L19.7446 13.7001H9.20003C8.59251 13.7001 8.10003 13.2077 8.10003 12.6001C8.10003 11.9926 8.59251 11.5001 9.20003 11.5001H19.7446L16.1223 7.87786L16.0471 7.79407C15.6947 7.36201 15.7196 6.72511 16.1223 6.32238Z" fill="currentColor"/>
</svg>
