<svg viewBox="0 0 24 24" fill="currentColor" xmlns="http://www.w3.org/2000/svg">
<path d="M6 21.75C5.5875 21.75 5.25 21.4125 5.25 21V3C5.25 2.5875 5.5875 2.25 6 2.25H13.5V6C13.5 6.82969 14.1703 7.5 15 7.5H18.75V21C18.75 21.4125 18.4125 21.75 18 21.75H6ZM6 0C4.34531 0 3 1.34531 3 3V21C3 22.6547 4.34531 24 6 24H18C19.6547 24 21 22.6547 21 21V7.24219C21 6.44531 20.6859 5.68125 20.1234 5.11875L15.8766 0.876563C15.3141 0.314063 14.5547 0 13.7578 0H6ZM8.625 12C8.00156 12 7.5 12.5016 7.5 13.125C7.5 13.7484 8.00156 14.25 8.625 14.25H15.375C15.9984 14.25 16.5 13.7484 16.5 13.125C16.5 12.5016 15.9984 12 15.375 12H8.625ZM8.625 16.5C8.00156 16.5 7.5 17.0016 7.5 17.625C7.5 18.2484 8.00156 18.75 8.625 18.75H15.375C15.9984 18.75 16.5 18.2484 16.5 17.625C16.5 17.0016 15.9984 16.5 15.375 16.5H8.625Z" fill="currentColor"/>
</svg>
