<svg viewBox="0 0 24 25" fill="currentColor" xmlns="http://www.w3.org/2000/svg">
<path d="M16.4444 8.40005C16.4444 5.97 14.4546 4.00005 12 4.00005C9.5454 4.00005 7.55556 5.97 7.55556 8.40005C7.55556 10.8301 9.5454 12.8 12 12.8C14.4546 12.8 16.4444 10.8301 16.4444 8.40005ZM18.6667 8.40005C18.6667 10.5406 17.6362 12.4417 16.0408 13.6476C17.1593 14.137 18.19 14.8267 19.0714 15.6994C20.9468 17.556 22 20.0744 22 22.7C22 23.3076 21.5025 23.8 20.8889 23.8C20.2752 23.8 19.7778 23.3076 19.7778 22.7C19.7778 20.6579 18.9588 18.6989 17.5002 17.2548C16.1327 15.9009 14.3077 15.104 12.3852 15.0097L12 15C9.93721 15 7.9584 15.8108 6.49978 17.2548C5.04117 18.6989 4.22222 20.6579 4.22222 22.7C4.22222 23.3076 3.72476 23.8 3.11111 23.8C2.49746 23.8 2 23.3076 2 22.7C2 20.0744 3.05324 17.556 4.9286 15.6994C5.8098 14.827 6.83992 14.1369 7.95812 13.6476C6.36312 12.4417 5.33333 10.5403 5.33333 8.40005C5.33333 4.75497 8.3181 1.80005 12 1.80005C15.6819 1.80005 18.6667 4.75497 18.6667 8.40005Z" fill="currentColor"/>
</svg>
