<svg viewBox="0 0 25 24" fill="currentColor" xmlns="http://www.w3.org/2000/svg">
<g clip-path="url(#clip0_19_360)">
<path d="M24.2256 8.97429L24.2273 8.96783C24.4105 7.89936 24.5001 7.18923 24.5001 6.80068C24.5001 6.20502 24.4133 5.88098 24.2379 5.80992L24.0512 5.80868H24.0442L23.6017 5.97322L23.3568 6.07031C23.2581 6.13446 23.165 6.20653 23.0785 6.28577L22.6218 6.69494C22.6193 6.69893 21.7837 7.68323 21.7837 7.68323L21.7759 7.6915V8.16926C21.7759 9.39087 21.6872 10.3229 21.5159 10.9398L21.5128 11.2991C21.5128 11.428 21.4631 11.6145 21.3602 11.8725C21.3602 11.8725 21.2072 12.2414 21.1808 12.3074C20.901 12.3919 20.6517 12.4522 20.4408 12.4839C20.1085 12.5407 19.8158 12.5598 19.572 12.5417L18.6201 12.4565C18.6141 12.4565 17.4199 12.5976 17.4199 12.5976C17.4255 12.5976 16.8018 12.5416 16.8018 12.5416C16.4164 12.5416 15.97 12.6163 15.4693 12.7667C15.2121 12.6926 15.1662 12.6372 15.1609 12.6126L15.204 12.5635L15.379 11.5552L15.6425 10.2902C15.7972 9.62571 15.9084 9.17997 15.9732 8.97249C16.103 8.40904 16.2055 7.90886 16.275 7.48525C16.3857 7.23654 16.4406 7.03685 16.4406 6.88304C16.4406 6.58797 16.3441 6.37251 16.1559 6.23571C15.9717 6.10261 15.707 6.03431 15.3706 6.03431C15.0613 6.03431 14.8265 6.08143 14.6743 6.17206C14.6721 6.17358 13.9418 6.73551 13.9418 6.73551L13.9352 6.74168L13.9318 6.74871C13.8657 6.91021 13.8308 7.01984 13.8249 7.089C13.7988 7.17165 13.7863 7.36052 13.7863 7.64447C13.7863 7.64143 13.6894 8.53624 13.6894 8.53624C13.4945 10.3084 13.2836 11.7817 13.0589 12.9216C12.9746 13.1743 12.825 13.4469 12.6139 13.7255C12.3647 14.0546 12.2098 14.2901 12.1534 14.4278L12.1509 14.4386L12.1529 14.4475C12.2389 14.7894 12.4841 15.2873 12.9086 15.9645C12.8733 16.0121 12.8535 16.0896 12.8535 16.2193C12.8535 16.2156 12.8137 16.4994 12.8137 16.4994L12.8117 16.5074L12.8148 16.5141C12.8284 16.5516 12.8432 16.6454 12.8432 16.8744C12.8432 17.1628 12.8888 17.5703 12.9799 18.0889L13.0871 18.9724C13.1855 19.6487 13.2374 19.7747 13.2719 19.8098C13.3241 19.9016 13.4615 19.9506 13.6728 19.9506C14.237 19.9506 14.7504 19.7037 15.1977 19.2173C15.4574 18.9392 15.7713 18.4529 16.1358 17.772L16.1394 17.768V17.76C16.1394 17.6583 16.0333 17.6066 15.8242 17.6066C15.8198 17.6072 15.7031 17.6269 15.7031 17.6269C15.7 17.6269 15.6113 17.6472 15.6113 17.6472L15.4759 17.8375L15.2826 18.025C15.2763 18.0259 15.2432 18.0342 15.167 18.0342C14.9085 18.0342 14.7764 17.6054 14.7764 16.7612L14.9509 15.1407C14.9657 15.1268 15.3024 14.8145 15.3024 14.8145C15.3024 14.8145 15.7318 14.5335 15.7679 14.509C16.2294 14.5074 16.6639 14.4183 17.0565 14.2404C17.3057 14.1287 17.9954 14.0175 19.1026 13.9107L20.0017 13.7961C20.0017 13.7961 20.7109 13.6707 20.8816 13.6415C20.8773 13.7777 20.8646 13.9135 20.8435 14.0482L20.349 16.294L20.0463 17.4827C20.0457 17.6521 19.9639 18.025 19.8049 18.5961C19.8026 18.6023 19.7257 19.8669 19.7257 19.8669L19.6097 20.1756L19.5103 20.5171L19.6097 20.9342C19.6077 20.932 19.6581 21.3212 19.6581 21.3212L19.6593 21.3357L19.6729 21.3421C19.7801 21.4029 19.8646 21.4352 19.9277 21.4411L20.3057 21.4995L20.3144 21.5L20.6618 21.3246C20.6662 21.3233 20.8816 21.1801 20.8816 21.1801C20.9934 21.0291 21.1025 20.7488 21.2123 20.3445L21.4181 19.6121C21.6219 18.9954 21.7583 18.5463 21.8349 18.2386L22.2914 16.9751C22.2914 16.9696 22.3697 16.4925 22.3697 16.4925C22.3961 16.3207 22.4096 16.1723 22.4096 16.0407C22.4096 15.9512 22.4548 15.8366 22.5454 15.6992C22.6394 15.5562 22.695 15.445 22.7111 15.3718C22.7111 15.2126 22.7736 14.903 22.8943 14.4677L23.1666 13.4767C23.2754 13.2071 23.3313 12.904 23.3313 12.5816C23.5963 12.0415 23.8644 11.0824 24.1291 9.73107L24.1694 9.53185L24.2291 9.31639C24.2291 9.31639 24.1766 9.0692 24.1709 9.04469C24.1829 9.03139 24.2256 8.97429 24.2256 8.97429Z" fill="#62BB46"/>
<path d="M11.6973 5.49556C11.4348 5.49556 11.212 5.52026 11.0378 5.57032L10.835 5.64224L9.99601 5.94406L8.8678 6.35227C7.31902 6.93909 5.96979 7.65378 4.85547 8.47791C4.00948 9.2345 3.41443 10.0872 3.08528 11.0127C3.08528 11.3272 3.07168 11.5267 3.04662 11.6137C3.08528 11.9522 3.18583 12.2359 3.3471 12.4642C3.49672 12.6819 3.62029 12.7913 3.72084 12.8107C3.7155 12.8458 3.70549 12.905 3.70549 12.905C3.70549 13.0834 3.78088 13.2482 3.9302 13.393C4.61959 13.9259 5.44576 14.7716 6.38414 15.9095C6.64372 16.2283 6.77488 16.5099 6.77488 16.7475C6.77488 16.7475 6.76419 16.8432 6.75885 16.8803C6.63732 16.9513 6.52255 17.0328 6.41591 17.1238C6.25745 17.2568 6.16312 17.3829 6.13708 17.4981C6.08511 17.5363 6.05091 17.5612 6.05091 17.5612C5.98805 17.6104 5.93112 17.6759 5.87827 17.7601L5.87419 17.7654V17.9233C5.85282 17.9405 5.46742 18.2387 5.46742 18.2387C5.46839 18.2368 4.89501 18.6266 4.89501 18.6266C4.75006 18.7211 4.59792 18.7841 4.44617 18.8172C4.43004 18.7979 4.39012 18.7542 4.39012 18.7542C4.39012 18.7542 4.37535 18.741 4.36534 18.7288C4.37943 18.6933 4.41878 18.639 4.53157 18.5612L5.19394 18.3358C5.33889 18.2581 5.40573 18.1567 5.39893 18.0316C5.38533 17.8701 5.28818 17.7841 5.11787 17.7841L4.91386 17.7912C4.90375 17.7952 2.28204 18.7816 2.28204 18.7816L1.81746 18.9537C1.81397 18.9559 1.41448 19.1535 1.41448 19.1535L1.03375 19.3219C1.02996 19.3244 0.667197 19.5796 0.667197 19.5796C0.554404 19.6872 0.5 19.8495 0.5 20.0656C0.5 20.2052 0.542163 20.3131 0.62445 20.3801C0.730733 20.4938 0.904925 20.5878 1.14324 20.6579L1.714 20.8273C2.0378 20.8304 2.30876 20.7905 2.53133 20.7109L3.38674 20.4191C3.3883 20.4179 4.02862 20.1698 4.02862 20.1698C4.34679 19.9577 4.78902 19.7262 5.34579 19.4763L6.54288 18.9316C6.88233 18.7216 7.12598 18.559 7.26899 18.4453C7.27122 18.4438 7.58143 18.1681 7.58143 18.1681C7.65001 18.1057 7.73045 18.0487 7.81789 17.9947C7.93942 17.9765 8.06173 17.9635 8.18444 17.9559C8.29286 17.9578 8.438 17.9356 8.6085 17.9104C8.91463 17.8644 9.29439 17.8078 9.62791 17.8739L9.64491 17.8763L9.65783 17.8591L9.72098 17.786C9.80084 17.718 9.84456 17.6955 9.86865 17.6888C9.86865 17.6888 10.2359 17.7156 10.2371 17.7171L10.5327 17.7912L10.5449 17.7945L10.6524 17.7394C10.6536 17.7373 10.7938 17.6544 10.7938 17.6544C10.9407 17.5308 11.0143 17.4302 11.0205 17.343C11.0246 17.3015 11.0114 17.2642 10.9828 17.2311L10.9771 17.2274L10.9708 17.224C10.2453 16.9437 9.64141 16.749 9.16265 16.6369C9.11272 16.6062 9.04481 16.584 8.95329 16.5798C9.00012 16.3955 9.02567 16.1992 9.02567 15.9892C9.02567 15.5035 8.81971 14.9616 8.41731 14.3754C8.41449 14.3725 7.23887 13.0333 7.23887 13.0333C6.86824 12.6115 6.54784 12.1719 6.29068 11.7247C6.14456 11.4809 6.05344 11.3104 6.00875 11.207C5.88206 10.9076 5.81765 10.6092 5.81765 10.3248C5.98174 9.83908 6.33003 9.35714 6.84813 8.90029C7.41986 8.39745 8.01812 8.04243 8.6258 7.84226L8.68418 7.8226C8.69079 7.82355 8.71974 7.83951 8.75802 7.86563C8.73985 7.98581 8.64435 8.09154 8.46764 8.17819L7.86404 8.482C7.66915 8.6244 7.55607 8.7498 7.50846 8.86751L7.50749 8.95605C7.50749 9.11594 7.60251 9.21768 7.79399 9.25815C7.80565 9.25815 8.02686 9.22129 8.02686 9.22129C9.22454 8.8448 10.5521 8.18598 11.9759 7.26295C12.0138 7.25183 12.0472 7.23036 12.0717 7.19987C12.0927 7.16947 12.1374 7.08435 12.1906 6.96503C12.3056 6.70682 12.3854 6.51321 12.426 6.39208C12.4398 6.32596 12.447 6.25499 12.447 6.17225C12.447 5.72442 12.1952 5.49556 11.6973 5.49556ZM3.65672 6.21547C3.65964 6.22165 3.89503 6.89026 4.58034 6.66768C5.23261 6.45316 6.55318 6.23761 6.56639 6.2358L6.57426 6.23485L7.46708 5.36123C7.47174 5.3542 8.13791 4.05639 8.13791 4.05639L8.14004 4.05079V2.94631L7.45474 2.5H6.55318L5.44012 3.1536L4.32318 3.80768C4.32318 3.80768 4.10974 4.43288 4.10469 4.45559C4.04125 4.48732 3.39898 4.83036 3.39898 5.35144C3.39898 5.41965 3.40996 5.49185 3.43454 5.56595L3.65672 6.21547Z" fill="#333132"/>
</g>
<defs>
<clipPath id="clip0_19_360">
<rect width="24" height="24" fill="white" transform="translate(0.5)"/>
</clipPath>
</defs>
</svg>
