<svg viewBox="0 0 25 25" fill="currentColor" xmlns="http://www.w3.org/2000/svg">
<g clip-path="url(#clip0_173_571)">
<path d="M24.1804 22.7367C24.6061 23.1627 24.6061 23.8533 24.1804 24.2793C23.7544 24.7053 23.0628 24.7053 22.6368 24.2793L18.2966 19.9392C16.9111 20.6418 15.4076 21.0887 13.8583 21.2538C12.0306 21.4486 10.1823 21.2482 8.43894 20.6658C6.69546 20.0833 5.09724 19.1323 3.75356 17.8779C2.49387 16.7019 1.48519 15.2843 0.786579 13.7115L0.650216 13.3951C0.64531 13.3832 0.640848 13.371 0.636366 13.3589C0.454545 12.8691 0.454545 12.3296 0.636366 11.8398L0.650216 11.8036L0.857957 11.3285C1.7487 9.39428 3.10654 7.71786 4.80186 6.4441L0.819605 2.46203L2.36329 0.919482L24.1804 22.7367ZM6.36152 8.00475C4.73216 9.15635 3.45463 10.7467 2.68289 12.5983C3.26443 13.9943 4.13622 15.2509 5.24184 16.2832C6.35685 17.3241 7.68356 18.1125 9.13034 18.5959C10.577 19.0792 12.1105 19.2465 13.6272 19.0849C14.672 18.9735 15.6902 18.7039 16.6527 18.2955L14.7149 16.3567C14.0378 16.7558 13.2603 16.9698 12.4617 16.9628C11.3177 16.9528 10.2237 16.4934 9.41479 15.6845C8.60586 14.8755 8.14639 13.7817 8.13638 12.6377C8.12944 11.839 8.34227 11.0607 8.74149 10.3836L6.36152 8.00475ZM10.9883 3.96303C13.7657 3.63204 16.5756 4.21904 18.988 5.63447C21.2497 6.96163 23.0461 8.94904 24.14 11.3231L24.3498 11.8025L24.3637 11.8387C24.5227 12.2673 24.5426 12.7335 24.4233 13.1714L24.3637 13.3579C24.3592 13.3699 24.3547 13.3822 24.3498 13.3941C23.9116 14.4564 23.3316 15.4551 22.6272 16.3631C22.2578 16.8387 21.5732 16.925 21.0973 16.5559C20.6213 16.1866 20.5341 15.5011 20.9034 15.025C21.4798 14.2822 21.9544 13.4661 22.3161 12.5983C21.4293 10.4687 19.8745 8.68475 17.8843 7.51685C15.8827 6.34232 13.5516 5.85524 11.2472 6.12984L10.9883 3.96303ZM10.3938 12.0358C10.3434 12.2243 10.3165 12.42 10.3182 12.6185C10.3232 13.1905 10.553 13.7374 10.9574 14.1419C11.3619 14.5464 11.9089 14.7761 12.4808 14.7811C12.679 14.7828 12.8743 14.7558 13.0625 14.7055L10.3938 12.0358ZM11.2472 6.12984C10.6489 6.20113 10.1061 5.77356 10.0348 5.17533C9.96354 4.57727 10.3903 4.03457 10.9883 3.96303L11.2472 6.12984ZM0.819605 0.919482C1.24564 0.493484 1.93727 0.493463 2.36329 0.919482L0.819605 2.46203C0.393943 2.03609 0.393947 1.34542 0.819605 0.919482Z" fill="currentColor"/>
</g>
<defs>
<clipPath id="clip0_173_571">
<rect width="24" height="23.9988" fill="white" transform="translate(0.5 0.599976)"/>
</clipPath>
</defs>
</svg>
