<svg viewBox="0 0 24 24" fill="currentColor" xmlns="http://www.w3.org/2000/svg">
<path d="M11.9979 4.66731C9.28149 4.66731 7.04835 5.90053 5.336 7.4879C3.73197 8.97943 2.62373 10.7501 2.05711 12C2.62373 13.2499 3.73197 15.0206 5.33183 16.5121C7.04835 18.0995 9.28149 19.3327 11.9979 19.3327C14.7143 19.3327 16.9475 18.0995 18.6598 16.5121C20.2639 15.0206 21.3721 13.2499 21.9387 12C21.3721 10.7501 20.2639 8.97943 18.664 7.4879C16.9475 5.90053 14.7143 4.66731 11.9979 4.66731ZM3.97361 6.02552C5.93594 4.20068 8.63154 2.66748 11.9979 2.66748C15.3643 2.66748 18.0599 4.20068 20.0222 6.02552C21.9721 7.83786 23.2761 10.0002 23.8969 11.4875C24.0344 11.8167 24.0344 12.1833 23.8969 12.5125C23.2761 13.9998 21.9721 16.1663 20.0222 17.9745C18.0599 19.7993 15.3643 21.3325 11.9979 21.3325C8.63154 21.3325 5.93594 19.7993 3.97361 17.9745C2.02378 16.1663 0.719729 13.9998 0.103116 12.5125C-0.034372 12.1833 -0.034372 11.8167 0.103116 11.4875C0.719729 10.0002 2.02378 7.8337 3.97361 6.02552ZM11.9979 15.333C13.8394 15.333 15.331 13.8415 15.331 12C15.331 10.1585 13.8394 8.66696 11.9979 8.66696C11.9688 8.66696 11.9438 8.66696 11.9146 8.66696C11.9688 8.87944 11.9979 9.10442 11.9979 9.33357C11.9979 10.8043 10.8022 12 9.33148 12C9.10234 12 8.87735 11.9708 8.66487 11.9167C8.66487 11.9458 8.66487 11.9708 8.66487 12C8.66487 13.8415 10.1564 15.333 11.9979 15.333ZM11.9979 6.66713C13.4123 6.66713 14.7687 7.22899 15.7688 8.22909C16.7689 9.2292 17.3308 10.5856 17.3308 12C17.3308 13.4144 16.7689 14.7708 15.7688 15.7709C14.7687 16.771 13.4123 17.3329 11.9979 17.3329C10.5836 17.3329 9.22712 16.771 8.22701 15.7709C7.2269 14.7708 6.66505 13.4144 6.66505 12C6.66505 10.5856 7.2269 9.2292 8.22701 8.22909C9.22712 7.22899 10.5836 6.66713 11.9979 6.66713Z" fill="currentColor"/>
</svg>
