<svg xmlns="http://www.w3.org/2000/svg" version="1.1" xmlns:xlink="http://www.w3.org/1999/xlink" width="24" height="25"><svg viewBox="0 0 24 25" xmlns="http://www.w3.org/2000/svg">
<path d="M23.9937 12.3792C23.9937 13.1292 23.3687 13.7168 22.6603 13.7168H21.3268L21.356 20.3923C21.356 20.5049 21.3476 20.6174 21.3351 20.7299V21.4008C21.3351 22.3217 20.5893 23.0676 19.6683 23.0676H19.0016C18.9558 23.0676 18.9099 23.0676 18.8641 23.0634C18.8058 23.0676 18.7474 23.0676 18.6891 23.0676H17.3348H16.3347C15.4138 23.0676 14.6679 22.3217 14.6679 21.4008V20.4007V17.7338C14.6679 16.9962 14.072 16.4003 13.3345 16.4003H10.6676C9.93001 16.4003 9.33413 16.9962 9.33413 17.7338V20.4007V21.4008C9.33413 22.3217 8.58823 23.0676 7.66732 23.0676H6.66723H5.33795C5.27545 23.0676 5.21294 23.0634 5.15044 23.0592C5.10043 23.0634 5.05043 23.0676 5.00043 23.0676H4.3337C3.41279 23.0676 2.66689 22.3217 2.66689 21.4008V16.7337C2.66689 16.6962 2.66689 16.6545 2.67106 16.617V13.7168H1.33345C0.583383 13.7168 0 13.1334 0 12.3792C0 12.0041 0.125011 11.6708 0.416702 11.3791L11.1009 2.06578C11.3926 1.77409 11.726 1.73242 12.0177 1.73242C12.3094 1.73242 12.6427 1.81576 12.8928 2.02411L23.5353 11.3791C23.8687 11.6708 24.0354 12.0041 23.9937 12.3792Z" fill="#2CB1A3"></path>
</svg><style>@media (prefers-color-scheme: light) { :root { filter: none; } }
@media (prefers-color-scheme: dark) { :root { filter: none; } }
</style></svg>